<?xml version="1.0" standalone="no"?>
<!DOCTYPE svg PUBLIC "-//W3C//DTD SVG 1.1//EN" "http://www.w3.org/Graphics/SVG/1.1/DTD/svg11.dtd" >
<svg xmlns="http://www.w3.org/2000/svg">
<metadata></metadata>
<defs>
<font id="fs_lolaregular" horiz-adv-x="307" >
<font-face units-per-em="1000" ascent="750" descent="-250" />
<missing-glyph horiz-adv-x="233" />
<glyph unicode="fi" horiz-adv-x="637" d="M548 617q0 -31 -20.5 -52.5t-51.5 -21.5t-53 21.5t-22 52.5t21.5 52.5t52.5 21.5t52 -21.5t21 -52.5zM607 95l-4 -76q-37 -25 -88 -25q-60 0 -85 34q-18 25 -18 78v285h-195v-391h-133v391h-75v94h75v44q0 84 35 122q40 45 128 45q57 0 103 -14l-12 -86q-29 9 -62 9 t-47 -18q-12 -16 -12 -51v-51h328v-373q0 -30 24 -30q21 0 38 13z" />
<glyph unicode="fl" horiz-adv-x="656" d="M616 95l-4 -76q-37 -25 -88 -25q-60 0 -85 34q-18 25 -18 78v578h133v-572q0 -30 24 -30q21 0 38 13zM359 678v-87q-39 14 -81 14q-34 0 -47 -18q-13 -16 -13 -53v-49h118v-94h-118v-391h-133v391h-76v94h76v44q0 84 36 123q41 44 130 44q58 0 108 -18z" />
<glyph unicode=" "  horiz-adv-x="233" />
<glyph unicode="&#x09;" horiz-adv-x="233" />
<glyph unicode="&#xa0;" horiz-adv-x="233" />
<glyph unicode="!" horiz-adv-x="290" d="M216 578q0 -2 -0.5 -5.5t-0.5 -5.5l-45 -372h-50l-45 372q0 2 -0.5 5.5t-0.5 5.5q0 31 20 48.5t51 17.5t51 -17.5t20 -48.5zM213 60q0 -28 -20 -48t-48 -20t-47.5 20t-19.5 48t19.5 47.5t47.5 19.5t48 -19.5t20 -47.5z" />
<glyph unicode="&#x22;" horiz-adv-x="348" d="M305 594q0 -11 -1 -16l-32 -164h-43l-32 164q-1 5 -1 16q0 24 14.5 37t39.5 13q24 0 39.5 -13t15.5 -37zM153 594q0 -11 -1 -16l-32 -164h-43l-32 164q-2 10 -2 16q0 24 15 37t40 13q24 0 39.5 -13t15.5 -37z" />
<glyph unicode="#" horiz-adv-x="558" d="M527 273v-88h-112v-185h-90v185h-90v-185h-90v185h-113v88h113v89h-113v87h113v184h90v-184h90v184h90v-184h112v-87h-112v-89h112zM235 273h90v89h-90v-89z" />
<glyph unicode="$" horiz-adv-x="558" d="M502 184q0 -84 -51 -132t-137 -59v-101h-67v98q-102 3 -185 40l6 115q89 -49 179 -52v165q-36 11 -55 18t-49 23t-46 34.5t-28.5 49t-12.5 69.5q0 78 49.5 128t141.5 61v98h67v-95q72 -3 143 -27l-5 -106q-72 28 -138 31v-163q42 -13 67.5 -24t57.5 -33t47.5 -56.5 t15.5 -81.5zM247 402v133q-57 -17 -57 -66q0 -42 57 -67zM367 167q0 41 -53 67v-133q53 18 53 66z" />
<glyph unicode="%" horiz-adv-x="860" d="M800 178q0 -88 -39 -137.5t-113 -49.5t-113.5 49.5t-39.5 137.5t39.5 137.5t113.5 49.5t113 -49.5t39 -137.5zM487 644h102l-213 -653h-102zM366 457q0 -88 -39.5 -137.5t-113.5 -49.5t-113 49.5t-39 137.5t39 137.5t113 49.5t113.5 -49.5t39.5 -137.5zM706 178 q0 62 -13.5 88t-44.5 26t-44.5 -26t-13.5 -88t13.5 -88t44.5 -26t44.5 26t13.5 88zM271 457q0 62 -13.5 88t-44.5 26t-44.5 -26t-13.5 -88t13.5 -88t44.5 -26t44.5 26t13.5 88z" />
<glyph unicode="&#x26;" horiz-adv-x="694" d="M660 107l-8 -85q-47 -32 -107 -32q-42 0 -71.5 19.5t-39.5 52.5q-24 -33 -72 -52.5t-103 -19.5q-95 0 -153 53t-58 140q0 60 31 105.5t91 65.5q-35 16 -55.5 49t-20.5 78q0 78 58.5 120.5t147.5 42.5q82 0 150 -28l-5 -93q-58 28 -120 28q-48 0 -73.5 -20.5t-25.5 -58.5 q0 -83 119 -83h285v-87h-88v-162q0 -30 10.5 -43t34.5 -13q31 0 73 23zM418 221v81h-102q-62 0 -96 -28q-33 -28 -33 -81q0 -47 29.5 -75.5t77.5 -28.5q67 0 100 44q24 33 24 88z" />
<glyph unicode="'" horiz-adv-x="196" d="M153 594q0 -11 -1 -16l-32 -164h-43l-32 164q-2 10 -2 16q0 24 15 37t40 13q24 0 39.5 -13t15.5 -37z" />
<glyph unicode="(" horiz-adv-x="312" d="M314 -157l-19 -35q-110 43 -171.5 163t-61.5 276t61.5 275.5t171.5 162.5l19 -35q-64 -46 -92.5 -142t-28.5 -261t29 -261.5t92 -142.5z" />
<glyph unicode=")" horiz-adv-x="312" d="M250 247q0 -156 -61.5 -276t-171.5 -163l-19 35q63 46 92 142.5t29 261.5t-28.5 261t-92.5 142l19 35q110 -43 171.5 -162.5t61.5 -275.5z" />
<glyph unicode="*" horiz-adv-x="461" d="M402 383q0 -16 -12.5 -31t-29.5 -15t-35 16l-78 71l23 -103q2 -10 2 -16q0 -19 -11.5 -29.5t-30.5 -10.5q-41 0 -41 40q0 11 1 16l22 103l-77 -71q-18 -16 -34 -16q-17 0 -29.5 15t-12.5 31q0 28 36 39l99 33l-99 32q-36 11 -36 39q0 16 12.5 31t29.5 15q16 0 34 -16 l77 -71l-22 103q-1 3 -1 16q0 40 41 40q19 0 30.5 -10.5t11.5 -29.5q0 -6 -2 -16l-23 -103l78 71q18 16 35 16t29.5 -15t12.5 -31q0 -27 -37 -39l-99 -32l99 -33q37 -12 37 -39z" />
<glyph unicode="+" horiz-adv-x="535" d="M448 367v-92h-132v-130h-95v130h-133v92h133v130h95v-130h132z" />
<glyph unicode="," horiz-adv-x="250" d="M195 43q0 -54 -35 -109.5t-89 -81.5l-35 39q28 20 48.5 49.5t24.5 52.5q-24 6 -39 23t-15 41q0 27 18.5 46t48.5 19q34 0 53.5 -21.5t19.5 -57.5z" />
<glyph unicode="-" horiz-adv-x="382" d="M322 292v-99h-261v99h261z" />
<glyph unicode="." horiz-adv-x="247" d="M191 60q0 -28 -19.5 -48t-47.5 -20t-48 20t-20 48t20 47.5t48 19.5t47.5 -19.5t19.5 -47.5z" />
<glyph unicode="/" horiz-adv-x="328" d="M212 644h113l-209 -653h-113z" />
<glyph unicode="0" horiz-adv-x="558" d="M516 316q0 -326 -236 -326q-119 0 -178.5 83.5t-59.5 242.5t59.5 243.5t177.5 84.5t177.5 -84.5t59.5 -243.5zM373 316q0 119 -21 171.5t-73 52.5t-73 -52.5t-21 -171.5q0 -118 21.5 -170.5t73.5 -52.5t72.5 52t20.5 171z" />
<glyph unicode="1" horiz-adv-x="558" d="M467 89v-89h-331v89h98v404l-82 -47l-47 80l178 107h86v-544h98z" />
<glyph unicode="2" horiz-adv-x="558" d="M210 99h291l-9 -99h-420v31q0 96 40 157t118 117q50 36 71 53t39.5 44t18.5 56q0 38 -21 60.5t-61 22.5q-69 0 -94 -82l-117 27q43 158 226 158q98 0 153 -52q52 -49 52 -130q0 -38 -11 -68.5t-37 -57.5t-45 -42t-58 -43q-37 -26 -58 -42.5t-46.5 -47.5t-31.5 -62z" />
<glyph unicode="3" horiz-adv-x="558" d="M503 190q0 -93 -63.5 -146.5t-177.5 -53.5q-103 0 -191 40l7 106q83 -47 166 -47q59 0 90 27t31 75q0 91 -130 91v84q108 5 108 98q0 35 -21 56.5t-57 21.5q-67 0 -94 -78l-114 26q19 75 75 114.5t139 39.5q99 0 151.5 -46t52.5 -119q0 -100 -85 -134q113 -34 113 -155z " />
<glyph unicode="4" horiz-adv-x="558" d="M525 221v-99h-70v-122h-125v122h-267l-29 67l234 455l106 -58l-189 -365h145v117h125v-117h70z" />
<glyph unicode="5" horiz-adv-x="558" d="M501 208q0 -101 -62 -159.5t-178 -58.5q-99 0 -177 39l7 103q72 -44 149 -44q61 0 93 30t32 85t-27 81q-32 29 -123 29h-116v320h348v-98h-242v-129h47q136 0 193 -50q56 -49 56 -148z" />
<glyph unicode="6" horiz-adv-x="558" d="M518 218q0 -100 -59.5 -164t-168.5 -64q-119 0 -178 79.5t-59 213.5q0 162 75 261.5t204 99.5q66 0 121 -21l-2 -90q-54 20 -105 20q-121 0 -148 -163q51 32 124 32q96 0 146 -52.5t50 -151.5zM388 215q0 119 -98 119q-54 0 -100 -32q-1 -12 -1 -39q2 -178 103 -178 q43 0 69.5 35t26.5 95z" />
<glyph unicode="7" horiz-adv-x="558" d="M473 633l26 -65l-230 -568h-139l232 535h-290v98h401z" />
<glyph unicode="8" horiz-adv-x="558" d="M511 181q0 -88 -58.5 -139.5t-173.5 -51.5q-102 0 -160.5 48t-58.5 134q0 48 26 89.5t76 67.5q-80 54 -80 146q0 76 55 122.5t147 46.5t145 -42.5t53 -114.5q0 -45 -26 -83t-67 -60q57 -27 89.5 -64.5t32.5 -98.5zM367 479q0 39 -22.5 59t-59.5 20t-59 -20.5t-22 -54.5 q0 -35 24 -57.5t70 -42.5q69 34 69 96zM383 171q0 18 -8.5 33t-17 24.5t-31.5 22t-33.5 17t-41.5 17.5q-66 -35 -66 -106q0 -45 27 -70t72 -26q46 -1 72.5 22.5t26.5 65.5z" />
<glyph unicode="9" horiz-adv-x="558" d="M505 351q0 -162 -75 -261.5t-204 -99.5q-66 0 -121 21l2 90q54 -20 105 -20q121 0 148 163q-51 -32 -124 -32q-96 0 -146 52.5t-50 151.5q0 100 59.5 164t168.5 64q119 0 178 -79.5t59 -213.5zM369 371q-2 178 -103 178q-43 0 -69.5 -35t-26.5 -95q0 -119 98 -119 q54 0 100 32q1 12 1 39z" />
<glyph unicode=":" horiz-adv-x="247" d="M191 338q0 -28 -19.5 -47.5t-47.5 -19.5t-48 19.5t-20 47.5t20 48t48 20t47.5 -20t19.5 -48zM191 60q0 -28 -19.5 -48t-47.5 -20t-48 20t-20 48t20 47.5t48 19.5t47.5 -19.5t19.5 -47.5z" />
<glyph unicode=";" horiz-adv-x="250" d="M193 338q0 -28 -20 -47.5t-48 -19.5t-47.5 19.5t-19.5 47.5t19.5 48t47.5 20t48 -20t20 -48zM195 43q0 -54 -35 -109.5t-89 -81.5l-35 39q28 20 48.5 49.5t24.5 52.5q-24 6 -39 23t-15 41q0 27 18.5 46t48.5 19q34 0 53.5 -21.5t19.5 -57.5z" />
<glyph unicode="&#x3c;" horiz-adv-x="535" d="M450 234v-101l-364 141v92l364 143v-101l-238 -87z" />
<glyph unicode="=" horiz-adv-x="535" d="M448 471v-93h-360v93h360zM448 263v-93h-360v93h360z" />
<glyph unicode="&#x3e;" horiz-adv-x="535" d="M450 366v-92l-364 -141v101l238 87l-238 87v101z" />
<glyph unicode="?" horiz-adv-x="501" d="M445 466q0 -151 -154 -181l-21 -4l-12 -86h-61l-11 142l40 7q87 15 87 107q0 40 -20.5 64t-59.5 24q-64 0 -87 -77l-115 23q16 76 71.5 117.5t139.5 41.5q92 0 147.5 -48.5t55.5 -129.5zM296 60q0 -28 -20 -48t-48 -20t-47.5 20t-19.5 48t19.5 47.5t47.5 19.5t48 -19.5 t20 -47.5z" />
<glyph unicode="@" horiz-adv-x="770" d="M722 352q0 -107 -47.5 -166t-130.5 -59q-78 0 -96 48q-33 -43 -99 -43q-58 0 -92 29.5t-34 87.5q0 53 35 85t101 32q38 0 72 -10v21q0 55 -68 55q-59 0 -111 -27v68q57 25 125 25q87 0 124 -36q32 -30 32 -91v-133q0 -36 32 -36q60 0 60 139q0 106 -64 168t-172 62 q-116 0 -180.5 -68t-64.5 -186q0 -126 69.5 -193.5t199.5 -67.5q148 0 269 57l-4 -61q-49 -26 -127 -44t-153 -18q-161 0 -256 86.5t-95 241.5q0 149 96.5 237.5t243.5 88.5q149 0 242 -82t93 -210zM431 256v48q-23 7 -47 7q-28 0 -43.5 -15.5t-15.5 -42.5q0 -25 14 -40 t38 -15q23 0 38.5 15t15.5 43z" />
<glyph unicode="A" horiz-adv-x="620" d="M383 633l228 -633h-144l-43 128h-228l-39 -128h-137l175 535h-59v98h247zM224 222h168l-69 206q-16 47 -19 78h-1q-1 -28 -16 -77z" />
<glyph unicode="B" horiz-adv-x="607" d="M567 185q0 -113 -89 -157q-55 -28 -167 -28h-232v535h-61v98h286q127 0 177 -45q48 -43 48 -114q0 -96 -83 -133q121 -29 121 -156zM389 453q0 41 -23 61q-22 21 -86 21h-62v-169h66q61 0 84 22q21 20 21 65zM420 192q0 47 -24 68q-28 24 -97 24h-81v-185h80 q65 0 93.5 20.5t28.5 72.5z" />
<glyph unicode="C" horiz-adv-x="578" d="M539 465l-141 -26q-21 99 -91 99q-61 0 -92.5 -57t-31.5 -153q0 -231 163 -231q91 0 183 58l-8 -109q-35 -24 -90.5 -40t-113.5 -16q-144 0 -213 89.5t-69 240.5q0 144 70 234t207 90q93 0 153 -48t74 -131z" />
<glyph unicode="D" horiz-adv-x="644" d="M609 314q0 -221 -156 -285q-73 -29 -180 -29h-194v535h-61v98h251q157 0 234 -51q106 -71 106 -268zM461 321q0 138 -60 183q-42 31 -132 31h-51v-437h64q75 0 116 29q63 45 63 194z" />
<glyph unicode="E" horiz-adv-x="534" d="M210 99h284l-9 -99h-414v633h400v-98h-261v-165h212v-97h-212v-174z" />
<glyph unicode="F" horiz-adv-x="505" d="M471 633v-98h-261v-165h213v-97h-213v-273h-139v633h400z" />
<glyph unicode="G" horiz-adv-x="630" d="M571 307v-307h-80l-22 36q-67 -46 -162 -46q-137 0 -204.5 88.5t-67.5 238.5q0 157 76.5 242t210.5 85q101 0 163.5 -48.5t79.5 -133.5l-144 -24q-24 100 -105 100q-64 0 -98.5 -59t-34.5 -155q0 -228 155 -228q56 0 96 27v101h-76v83h213z" />
<glyph unicode="H" horiz-adv-x="645" d="M574 633v-633h-139v262h-225v-262h-139v633h139v-261h225v261h139z" />
<glyph unicode="I" horiz-adv-x="383" d="M326 77v-77h-269v77h64v477h-64v79h269v-79h-66v-477h66z" />
<glyph unicode="J" horiz-adv-x="454" d="M383 633v-431q0 -97 -27 -139q-47 -73 -171 -73q-76 0 -139 24l6 100q48 -22 104 -22q47 0 67 21q21 21 21 75v347h-162v98h301z" />
<glyph unicode="K" horiz-adv-x="616" d="M601 101l-8 -88q-32 -21 -85 -21q-44 0 -74 22t-59 75l-93 170h-72v-259h-139v633h139v-262h80l135 262h140l-164 -309l109 -198q21 -37 50 -37q25 0 41 12z" />
<glyph unicode="L" horiz-adv-x="504" d="M210 99h272l-8 -99h-403v633h139v-534z" />
<glyph unicode="M" horiz-adv-x="789" d="M718 633v-633h-118v414q-4 -31 -27 -84l-143 -330h-67l-149 329q-18 40 -26 86v-415h-117v633h129l173 -378q23 -50 27 -79h1q2 29 24 79l163 378h130z" />
<glyph unicode="N" horiz-adv-x="652" d="M581 633v-633h-92l-271 352q-23 30 -30 54v-406h-117v633h89l272 -352q25 -31 32 -54v406h117z" />
<glyph unicode="O" horiz-adv-x="626" d="M591 317q0 -151 -71 -239t-207 -88t-207 88t-71 239t71 239t207 88t207 -88t71 -239zM443 317q0 220 -130 220t-130 -220t130 -220t130 220z" />
<glyph unicode="P" horiz-adv-x="594" d="M567 422q0 -131 -90 -183q-63 -37 -176 -37h-83v-202h-139v535h-61v98h259q137 0 201 -35q89 -49 89 -176zM424 419q0 66 -42 94q-34 22 -102 22h-62v-238h64q73 0 107.5 26.5t34.5 95.5z" />
<glyph unicode="Q" horiz-adv-x="626" d="M591 317q0 -138 -59.5 -224t-174.5 -100q-4 -11 -4 -26q0 -22 13.5 -34t36.5 -12q46 0 117 40l-7 -86q-69 -54 -157 -54q-58 0 -93 31t-35 88q0 29 13 57q-101 22 -153.5 106t-52.5 214q0 151 71 239t207 88t207 -88t71 -239zM443 317q0 220 -130 220t-130 -220t130 -220 t130 220z" />
<glyph unicode="R" horiz-adv-x="631" d="M605 104l-8 -91q-34 -21 -82 -21q-50 0 -78.5 20t-56.5 68l-86 145h-75v-225h-139v535h-61v98h278q127 0 189 -39q81 -52 81 -158q0 -150 -127 -193l72 -123q18 -31 46 -31q23 0 47 15zM423 427q0 55 -27 81q-30 27 -110 27h-67v-221h87q62 0 89.5 28t27.5 85z" />
<glyph unicode="S" horiz-adv-x="545" d="M506 184q0 -97 -66.5 -145.5t-174.5 -48.5q-106 0 -199 40l6 115q40 -23 92.5 -37.5t94.5 -14.5q51 0 81.5 18.5t30.5 55.5q0 34 -32 55t-77.5 34t-91.5 31t-78 59t-32 106q0 88 63 140t177 52q80 0 161 -27l-5 -106q-81 31 -147 31q-56 0 -85.5 -19.5t-29.5 -53.5 q0 -28 23 -47.5t58 -28.5t75 -24.5t75 -33.5t58 -57t23 -94z" />
<glyph unicode="T" horiz-adv-x="541" d="M521 633v-98h-181v-535h-139v535h-181v98h501z" />
<glyph unicode="U" horiz-adv-x="635" d="M565 633v-399q0 -109 -45 -166q-61 -78 -204 -78q-134 0 -195 67q-51 56 -51 172v404h140v-398q0 -72 23 -102q27 -35 86 -35q57 0 85 33q25 31 25 103v399h136z" />
<glyph unicode="V" horiz-adv-x="573" d="M426 633h138l-208 -633h-145l-201 633h147l120 -408q12 -39 12 -76h1q2 39 13 76z" />
<glyph unicode="W" horiz-adv-x="855" d="M714 633h132l-190 -633h-127l-95 321l-100 -321h-124l-200 633h139l120 -396q14 -49 14 -73h1q2 32 13 71l84 264l-40 134h131l113 -394q12 -42 12 -75h2q1 32 12 76z" />
<glyph unicode="X" horiz-adv-x="604" d="M580 105l-6 -90q-33 -23 -81 -23q-42 0 -69.5 19t-53.5 63l-88 148l-119 -222h-144l196 329l-188 304h157l124 -207l111 207h141l-187 -315l116 -192q22 -36 49 -36q22 0 42 15z" />
<glyph unicode="Y" horiz-adv-x="587" d="M445 633h136l-220 -415v-218h-139v220l-219 413h155l121 -237q23 -45 25 -70h1q3 27 23 68z" />
<glyph unicode="Z" horiz-adv-x="540" d="M218 99h290l-9 -99h-448v77l276 458h-265v98h432v-77z" />
<glyph unicode="[" horiz-adv-x="319" d="M310 -92v-93h-231v869h231v-93h-106v-683h106z" />
<glyph unicode="\" horiz-adv-x="328" d="M116 644l209 -653h-113l-209 653h113z" />
<glyph unicode="]" horiz-adv-x="319" d="M240 684v-869h-231v93h106v683h-106v93h231z" />
<glyph unicode="^" horiz-adv-x="535" d="M322 622l138 -241h-95l-96 173l-97 -173h-96l140 242q12 21 31 21h44q19 0 31 -22z" />
<glyph unicode="_" horiz-adv-x="500" d="M505 -48v-72h-510v72h510z" />
<glyph unicode="`" d="M250 563l-12 -36q-70 55 -128 55q-12 0 -37 -5q-18 24 -18 47q0 19 13 30t37 11q61 0 145 -102z" />
<glyph unicode="a" horiz-adv-x="542" d="M525 95l-5 -76q-36 -25 -89 -25q-69 0 -86 51q-41 -54 -131 -54q-79 0 -125.5 42t-46.5 119q0 79 51 121.5t139 42.5q54 0 98 -16v13q0 47 -19 69q-23 26 -81 26q-74 0 -145 -36v90q70 32 166 32q115 0 169 -51q43 -40 43 -124v-207q0 -30 23 -30q22 0 39 13zM330 161v67 q-30 12 -69 12q-42 0 -63.5 -22.5t-21.5 -59.5q0 -39 20.5 -60t55.5 -21q37 0 58 23q20 22 20 61z" />
<glyph unicode="b" horiz-adv-x="553" d="M523 249q0 -126 -60 -190q-62 -68 -198 -68q-100 0 -194 30v569h-58v94h191v-239q47 49 126 49q95 0 144 -64.5t49 -180.5zM388 246q0 150 -95 150q-44 0 -67 -26q-22 -23 -22 -76v-206q22 -10 58 -10q53 0 82 26q44 38 44 142z" />
<glyph unicode="c" horiz-adv-x="486" d="M457 339l-121 -25q-10 46 -27 68t-50 22q-46 0 -70 -42.5t-24 -112.5q0 -165 127 -165q78 0 149 47l-5 -94q-70 -46 -170 -46q-112 0 -174 65t-62 184q0 117 60.5 185.5t167.5 68.5q80 0 134 -40q49 -38 65 -115z" />
<glyph unicode="d" horiz-adv-x="564" d="M545 95l-5 -75q-38 -26 -90 -26q-68 0 -88 52q-47 -55 -132 -55q-94 0 -147 60.5t-53 169.5q0 124 70.5 198.5t193.5 74.5q28 0 56 -5v101h-58v94h191v-572q0 -30 23 -30q22 0 39 13zM350 191v214q-18 5 -46 5q-67 0 -103 -48t-36 -135q0 -64 24.5 -102t73.5 -38 q46 0 67 28q20 25 20 76z" />
<glyph unicode="e" horiz-adv-x="516" d="M479 271q0 -39 -13.5 -55.5t-46.5 -16.5h-252q7 -58 41 -87t90 -29q88 0 159 49l-5 -91q-70 -50 -181 -50q-115 0 -178 67t-63 182q0 118 62.5 186t166.5 68q99 0 159.5 -61t60.5 -162zM351 285q0 57 -24.5 88t-67.5 31q-40 0 -65.5 -32t-28.5 -97h177q9 0 9 10z" />
<glyph unicode="f" horiz-adv-x="359" d="M359 678v-87q-39 14 -81 14q-34 0 -47 -18q-13 -16 -13 -53v-49h118v-94h-118v-391h-133v391h-76v94h76v44q0 84 36 123q41 44 130 44q58 0 108 -18z" />
<glyph unicode="g" horiz-adv-x="551" d="M488 465v-447q0 -114 -46 -167q-54 -63 -179 -63q-107 0 -186 42l8 98q74 -45 159 -45q58 0 84 26q27 27 27 96v41q-41 -48 -121 -48q-96 0 -149 59t-53 165q0 127 76.5 199.5t204.5 72.5q95 0 175 -29zM355 191v208q-19 7 -45 7q-67 0 -105 -47t-38 -128 q0 -68 25.5 -104t73.5 -36q43 0 67 27q22 23 22 73z" />
<glyph unicode="h" horiz-adv-x="562" d="M502 317v-317h-133v296q0 49 -16 71q-21 27 -63 27q-44 0 -68 -31q-20 -26 -20 -85v-278h-133v684h133v-235q47 45 125 45q88 0 133 -47q42 -45 42 -130z" />
<glyph unicode="i" d="M218 617q0 -31 -20.5 -52.5t-51.5 -21.5t-53 21.5t-22 52.5t21.5 52.5t52.5 21.5t52 -21.5t21 -52.5zM277 95l-4 -76q-37 -25 -88 -25q-60 0 -85 34q-18 25 -18 78v285h-58v94h191v-373q0 -30 24 -30q21 0 38 13z" />
<glyph unicode="j" horiz-adv-x="299" d="M237 617q0 -31 -20.5 -52.5t-51.5 -21.5t-53 21.5t-22 52.5t21.5 52.5t52.5 21.5t52 -21.5t21 -52.5zM234 485v-493q0 -104 -31 -144q-41 -53 -138 -53q-58 0 -100 16l5 92q33 -14 71 -14q34 0 47 18.5t13 64.5v419h-61v94h194z" />
<glyph unicode="k" horiz-adv-x="546" d="M537 95l-4 -79q-29 -22 -78 -22q-40 0 -66 16.5t-48 54.5l-90 151h-47v-216h-133v590h-58v94h191v-370h53l99 171h132l-126 -216l96 -159q17 -28 40 -28q21 0 39 13z" />
<glyph unicode="l" d="M267 95l-4 -76q-37 -25 -88 -25q-60 0 -85 34q-18 25 -18 78v484h-58v94h191v-572q0 -30 24 -30q21 0 38 13z" />
<glyph unicode="m" horiz-adv-x="857" d="M797 316v-316h-133v296q0 51 -15 71q-21 27 -61 27q-42 0 -65 -30q-20 -27 -20 -84v-280h-133v296q0 51 -15 71q-21 27 -61 27q-42 0 -65 -30q-20 -27 -20 -84v-280h-133v391h-58v94h137l24 -62q48 71 153 71q103 0 146 -66q52 66 148 66q101 0 143 -61q28 -40 28 -117z " />
<glyph unicode="n" horiz-adv-x="569" d="M509 317v-317h-133v296q0 49 -16 71q-21 27 -63 27q-44 0 -68 -31q-20 -26 -20 -85v-278h-133v391h-58v94h137l24 -62q53 71 155 71q88 0 133 -47q42 -45 42 -130z" />
<glyph unicode="o" horiz-adv-x="532" d="M502 242q0 -119 -61.5 -185t-174.5 -66t-174.5 66t-61.5 185t61.5 185.5t174.5 66.5t174.5 -66.5t61.5 -185.5zM367 242q0 161 -101 161t-101 -161q0 -160 101 -160t101 160z" />
<glyph unicode="p" horiz-adv-x="559" d="M529 249q0 -143 -77 -207q-62 -51 -166 -51q-44 0 -77 7v-197h-133v590h-58v94h139l26 -63q50 72 149 72t148 -65t49 -180zM394 245q0 151 -97 151q-47 0 -69 -33q-19 -25 -19 -83v-195q32 -8 65 -8q66 0 93 42.5t27 125.5z" />
<glyph unicode="q" horiz-adv-x="547" d="M511 -182l-128 -26q-31 47 -31 131v119q-42 -51 -125 -51q-93 0 -145 61t-52 165q0 128 71.5 202.5t200.5 74.5q93 0 183 -28v-510q0 -87 26 -138zM352 185v213q-21 7 -52 7q-65 0 -100 -47t-35 -129q0 -65 24 -103.5t73 -38.5q43 0 66 26q24 25 24 72z" />
<glyph unicode="r" horiz-adv-x="365" d="M341 491v-105q-15 3 -39 3q-46 0 -69 -27q-24 -29 -24 -95v-267h-133v391h-58v94h139l24 -68q18 36 52.5 56.5t76.5 20.5q18 0 31 -3z" />
<glyph unicode="s" horiz-adv-x="458" d="M424 144q0 -74 -54.5 -113.5t-141.5 -39.5q-102 0 -176 33l8 100q31 -18 76.5 -30t82.5 -12q82 0 82 48q0 23 -26 37t-63 23.5t-73.5 23t-62.5 45.5t-26 82q0 71 55 112t145 41q79 0 136 -21v-94q-61 25 -127 25q-38 0 -62 -13.5t-24 -36.5q0 -21 26 -34.5t62.5 -23.5 t73.5 -24t63 -46.5t26 -81.5z" />
<glyph unicode="t" horiz-adv-x="387" d="M357 112l-3 -89q-47 -32 -121 -32q-73 0 -110 39q-34 37 -34 125v236h-76v94h76v120l133 33v-153h112v-94h-112v-234q0 -36 11.5 -53.5t41.5 -17.5q39 0 82 26z" />
<glyph unicode="u" horiz-adv-x="574" d="M555 95l-5 -75q-38 -26 -89 -26q-67 0 -86 50q-51 -53 -140 -53q-88 0 -133 47q-42 45 -42 130v317h133v-296q0 -49 16 -71q21 -27 63 -27q44 0 68 31q20 26 20 85v278h133v-373q0 -30 24 -30q21 0 38 13z" />
<glyph unicode="v" horiz-adv-x="485" d="M357 485h123l-183 -485h-121l-171 485h134l85 -270q17 -55 19 -85q4 42 20 85z" />
<glyph unicode="w" horiz-adv-x="699" d="M582 485h112l-160 -485h-104l-77 240l-79 -240h-101l-168 485h131l82 -255q17 -51 19 -83q3 37 19 84l51 154l-32 100h121l75 -253q16 -55 17 -87q2 34 18 87z" />
<glyph unicode="x" horiz-adv-x="483" d="M478 95l-4 -79q-31 -22 -74 -22q-35 0 -61.5 17t-53.5 59l-58 92l-96 -162h-121l156 253l-150 232h138l98 -152l88 152h118l-147 -241l86 -135q17 -26 41 -26q21 0 40 12z" />
<glyph unicode="y" horiz-adv-x="557" d="M493 485v-467q0 -114 -46 -167q-54 -63 -179 -63q-107 0 -186 42l8 98q74 -45 159 -45q58 0 84 26q27 27 27 96v27q-53 -41 -125 -41q-88 0 -133 47q-42 45 -42 130v317h133v-296q0 -49 16 -71q21 -27 63 -27q44 0 68 31q20 26 20 85v278h133z" />
<glyph unicode="z" horiz-adv-x="454" d="M193 94h232l-7 -94h-375v72l217 319h-212v94h361v-73z" />
<glyph unicode="{" horiz-adv-x="342" d="M318 -136v-68h-49q-81 0 -117 28t-36 84q0 25 5 107t5 109q0 47 -18 67t-61 23l-14 1v50l14 1q43 3 61 23t18 67q0 27 -5 109t-5 107q0 58 37 85t116 27h49v-68h-28q-57 0 -57 -51q0 -19 10.5 -91t10.5 -108q0 -113 -99 -126q99 -13 99 -126q0 -36 -10.5 -108t-10.5 -91 q0 -51 57 -51h28z" />
<glyph unicode="|" horiz-adv-x="242" d="M169 750v-1000h-96v1000h96z" />
<glyph unicode="}" horiz-adv-x="342" d="M309 265v-50l-14 -1q-43 -3 -61 -23t-18 -67q0 -27 5 -109t5 -107q0 -56 -36 -84t-117 -28h-49v68h28q57 0 57 51q0 19 -10.5 91t-10.5 108q0 113 99 126q-99 13 -99 126q0 36 10.5 108t10.5 91q0 51 -57 51h-28v68h49q79 0 116 -27t37 -85q0 -25 -5 -107t-5 -109 q0 -47 18 -67t61 -23z" />
<glyph unicode="~" horiz-adv-x="535" d="M467 338l49 -41q-61 -138 -160 -138q-40 0 -98 35t-86 35q-50 0 -103 -67l-49 40q61 138 159 138q41 0 99.5 -35t85.5 -35q49 0 103 68z" />
<glyph unicode="&#xa1;" horiz-adv-x="290" d="M74 -92q0 2 0.5 5.5t0.5 5.5l45 372h50l45 -372q0 -2 0.5 -5.5t0.5 -5.5q0 -31 -20 -48.5t-51 -17.5t-51 17.5t-20 48.5zM77 426q0 28 20 48t48 20t47.5 -20t19.5 -48t-19.5 -47.5t-47.5 -19.5t-48 19.5t-20 47.5z" />
<glyph unicode="&#xa2;" horiz-adv-x="558" d="M493 339l-121 -25q-15 68 -46 83v-313h2q78 0 149 47l-5 -94q-61 -39 -146 -45v-100h-65v101q-94 11 -145 75t-51 172t51.5 175t144.5 77v101h65v-101q59 -6 102 -38q49 -38 65 -115zM261 100v297q-60 -29 -60 -148q0 -115 60 -149z" />
<glyph unicode="&#xa3;" horiz-adv-x="558" d="M235 99h288l-9 -99h-433v72q40 31 59 58.5t19 67.5q0 34 -21 83h-97v69h68q-24 63 -24 110q0 83 57.5 133.5t149.5 50.5q185 0 226 -170l-126 -21q-20 85 -89 85q-36 0 -56.5 -20.5t-20.5 -52.5q0 -35 35 -115h152v-69h-126q11 -35 11 -60q0 -40 -14.5 -67t-48.5 -55z " />
<glyph unicode="&#xa4;" horiz-adv-x="558" d="M453 316q0 -60 -24 -102l76 -124h-103l-34 64q-38 -20 -90 -20t-90 20l-34 -64h-103l76 124q-24 42 -24 102t24 102l-76 124h103l34 -64q38 20 90 20t90 -20l34 64h103l-76 -124q24 -42 24 -102zM348 316q0 102 -70 102t-70 -102t70 -102t70 102z" />
<glyph unicode="&#xa5;" horiz-adv-x="558" d="M434 633h136l-189 -356h97v-72h-128v-44h128v-72h-128v-89h-140v89h-128v72h128v44h-128v72h97l-190 356h156l121 -237q22 -45 25 -73h1q2 28 24 71z" />
<glyph unicode="&#xa6;" horiz-adv-x="242" d="M169 750v-380h-96v380h96zM169 130v-380h-96v380h96z" />
<glyph unicode="&#xa7;" horiz-adv-x="558" d="M466 -58q0 -77 -55.5 -122.5t-143.5 -45.5q-80 0 -148 26l7 90q67 -26 130 -26q40 0 64 16.5t24 44.5q0 23 -26 41.5t-63 34.5t-74 36t-63 57t-26 87q0 103 95 153q-95 54 -95 142q0 77 55.5 122.5t143.5 45.5q81 0 149 -26l-7 -89q-64 25 -130 25q-40 0 -64 -16.5 t-24 -44.5q0 -24 26 -43t62.5 -35t73.5 -36.5t63 -56.5t26 -85q0 -50 -24.5 -90t-69.5 -63q94 -53 94 -142zM348 214q0 25 -19 42.5t-56 35.5q-63 -26 -63 -88q0 -25 19 -42.5t56 -35.5q63 26 63 88z" />
<glyph unicode="&#xa8;" d="M297 612q0 -25 -17 -41.5t-42 -16.5t-41.5 16.5t-16.5 41.5t16.5 42t41.5 17t42 -17t17 -42zM127 612q0 -25 -16.5 -41.5t-41.5 -16.5t-42 16.5t-17 41.5t17 42t42 17t41.5 -17t16.5 -42z" />
<glyph unicode="&#xa9;" horiz-adv-x="755" d="M714 317q0 -141 -92.5 -234t-243.5 -93t-244 93t-93 234t93 234t244 93t243.5 -93t92.5 -234zM638 317q0 121 -71.5 192t-188.5 71t-188.5 -71t-71.5 -192t71.5 -192t188.5 -71t188.5 71t71.5 192zM507 390l-83 -16q-12 51 -45 51q-29 0 -44 -27.5t-15 -74.5 q0 -114 79 -114q47 0 102 37l-5 -69q-43 -32 -111 -32q-79 0 -116.5 48t-37.5 126t38.5 124.5t111.5 46.5q52 0 84.5 -25.5t41.5 -74.5z" />
<glyph unicode="&#xaa;" horiz-adv-x="380" d="M345 406l-3 -46q-23 -16 -55 -16q-41 0 -52 31q-24 -33 -80 -33q-47 0 -75 25t-28 71q0 48 31 73.5t83 25.5q29 0 59 -10v8q0 29 -11 41q-14 16 -49 16q-46 0 -87 -22v54q45 20 99 20q68 0 102 -31q26 -25 26 -75v-124q0 -18 14 -18t26 10zM225 444v41q-18 6 -41 6 q-51 0 -51 -48q0 -23 12.5 -36.5t32.5 -13.5q21 0 35 14q12 12 12 37z" />
<glyph unicode="&#xab;" horiz-adv-x="523" d="M354 242l87 -113l-25 -74l-154 160q-13 13 -13 27q0 12 13 27l154 160l25 -74zM175 242l87 -113l-25 -74l-154 160q-13 13 -13 27q0 12 13 27l154 160l25 -74z" />
<glyph unicode="&#xac;" horiz-adv-x="535" d="M448 471v-287h-93v194h-267v93h360z" />
<glyph unicode="&#xad;" horiz-adv-x="382" d="M322 292v-99h-261v99h261z" />
<glyph unicode="&#xae;" horiz-adv-x="755" d="M714 317q0 -141 -92.5 -234t-243.5 -93t-244 93t-93 234t93 234t244 93t243.5 -93t92.5 -234zM638 317q0 121 -71.5 192t-188.5 71t-188.5 -71t-71.5 -192t71.5 -192t188.5 -71t188.5 71t71.5 192zM541 216l-6 -59q-22 -13 -47 -13q-28 0 -44.5 12t-33.5 39l-42 68h-30 v-115h-84v274h-32v62h153q63 0 97 -20q48 -26 48 -88q0 -75 -65 -101l32 -53q9 -16 23 -16q16 0 31 10zM433 372q0 26 -11 36q-14 14 -54 14h-30v-102h40q30 0 42.5 12.5t12.5 39.5z" />
<glyph unicode="&#xaf;" d="M271 656v-64h-234v64h234z" />
<glyph unicode="&#xb0;" horiz-adv-x="456" d="M396 474q0 -76 -48 -123t-120 -47t-119.5 46.5t-47.5 123.5t47.5 123.5t119.5 46.5t120 -47t48 -123zM317 474q0 45 -23 74.5t-66 29.5t-65.5 -29.5t-22.5 -74.5q0 -46 22.5 -75.5t65.5 -29.5t66 30t23 75z" />
<glyph unicode="&#xb1;" horiz-adv-x="535" d="M448 367v-92h-132v-130h-95v130h-133v92h133v130h95v-130h132zM448 93v-93h-360v93h360z" />
<glyph unicode="&#xb2;" horiz-adv-x="387" d="M167 320h175l-7 -71h-267v24q0 39 13 71.5t32.5 51.5t42 37t42 30t32.5 29t13 35q0 43 -44 43q-38 0 -53 -50l-83 19q30 105 145 105q57 0 94 -29.5t37 -84.5q0 -32 -15 -57.5t-38 -43t-47 -33t-44.5 -35t-27.5 -41.5z" />
<glyph unicode="&#xb3;" horiz-adv-x="387" d="M342 372q0 -58 -40 -91t-112 -33q-62 0 -122 26l5 77q59 -32 107 -32q66 0 66 53q0 47 -80 47v62q66 3 66 51q0 18 -10.5 28.5t-29.5 10.5q-37 0 -53 -46l-81 18q26 101 137 101q63 0 96.5 -28.5t33.5 -74.5q0 -54 -41 -78q58 -24 58 -91z" />
<glyph unicode="&#xb4;" d="M253 624q0 -23 -18 -47q-25 5 -36 5q-58 0 -128 -55l-13 36q84 102 145 102q24 0 37 -11t13 -30z" />
<glyph unicode="&#xb6;" horiz-adv-x="511" d="M482 633v-75h-65v-785h-82v785h-63v-785h-82v549q-67 0 -111 44.5t-44 110.5q0 69 45.5 112.5t116.5 43.5h285z" />
<glyph unicode="&#xb7;" horiz-adv-x="244" d="M189 294q0 -27 -20 -46.5t-47 -19.5t-46.5 19.5t-19.5 46.5t19.5 46.5t46.5 19.5t47 -19.5t20 -46.5z" />
<glyph unicode="&#xb8;" d="M232 -99q0 -37 -32.5 -59.5t-94.5 -21.5l-13 40q76 3 76 27q0 11 -14.5 18.5t-31.5 12t-31.5 14t-14.5 22.5q0 14 17 49l23 47l37 -23l-12 -25q-6 -12 -6 -21q0 -10 24.5 -18t48.5 -22.5t24 -39.5z" />
<glyph unicode="&#xb9;" horiz-adv-x="387" d="M311 320v-66h-210v66h59v223l-46 -25l-35 58l115 68h60v-324h57z" />
<glyph unicode="&#xba;" horiz-adv-x="380" d="M331 493q0 -71 -37 -111t-104 -40t-103.5 40t-36.5 111t36.5 111t103.5 40t104 -40t37 -111zM251 493q0 96 -61 96q-60 0 -60 -96q0 -97 60 -97q61 0 61 97z" />
<glyph unicode="&#xbb;" horiz-adv-x="523" d="M453 242q0 -14 -13 -27l-154 -160l-25 74l87 113l-87 113l25 74l154 -160q13 -15 13 -27zM274 242q0 -14 -13 -27l-154 -160l-25 74l87 113l-87 113l25 74l154 -160q13 -15 13 -27z" />
<glyph unicode="&#xbc;" horiz-adv-x="850" d="M781 143v-70h-52v-73h-89v73h-165l-11 45l143 276l77 -40l-109 -211h65v58h89v-58h52zM476 644h96l-210 -653h-96zM305 320v-66h-210v66h59v223l-46 -25l-35 58l115 68h60v-324h57z" />
<glyph unicode="&#xbd;" horiz-adv-x="850" d="M600 71h175l-7 -71h-268v25q0 41 15 74.5t32.5 51t45.5 37.5q46 33 59 45q23 23 23 46q0 42 -43 42q-39 0 -54 -49l-82 18q30 105 145 105q57 0 94 -29.5t37 -84.5q0 -41 -22.5 -69.5t-65 -56.5t-57.5 -43q-19 -18 -27 -41zM470 644h96l-210 -653h-96zM299 320v-66h-210 v66h59v223l-46 -25l-35 58l115 68h60v-324h57z" />
<glyph unicode="&#xbe;" horiz-adv-x="850" d="M809 143v-70h-52v-73h-89v73h-165l-11 45l143 276l77 -40l-109 -211h65v58h89v-58h52zM499 644h96l-210 -653h-96zM352 372q0 -58 -40 -91t-112 -33q-62 0 -122 26l5 77q59 -32 107 -32q66 0 66 53q0 47 -80 47v62q66 3 66 51q0 18 -10.5 28.5t-29.5 10.5q-37 0 -53 -46 l-81 18q26 101 137 101q63 0 96.5 -28.5t33.5 -74.5q0 -54 -41 -78q58 -24 58 -91z" />
<glyph unicode="&#xbf;" horiz-adv-x="501" d="M56 20q0 151 154 181l21 4l12 86h61l11 -142l-40 -7q-87 -15 -87 -107q0 -40 20.5 -64t59.5 -24q64 0 87 77l115 -23q-16 -76 -71.5 -117.5t-139.5 -41.5q-92 0 -147.5 48.5t-55.5 129.5zM205 426q0 28 20 48t48 20t47.5 -20t19.5 -48t-19.5 -47.5t-47.5 -19.5t-48 19.5 t-20 47.5z" />
<glyph unicode="&#xc0;" horiz-adv-x="620" d="M383 633l228 -633h-144l-43 128h-228l-39 -128h-137l175 535h-59v98h247zM224 222h168l-69 206q-16 47 -19 78h-1q-1 -28 -16 -77zM388 718l-12 -36q-70 55 -128 55q-12 0 -37 -5q-18 24 -18 47q0 19 13 30t37 11q61 0 145 -102z" />
<glyph unicode="&#xc1;" horiz-adv-x="620" d="M383 633l228 -633h-144l-43 128h-228l-39 -128h-137l175 535h-59v98h247zM224 222h168l-69 206q-16 47 -19 78h-1q-1 -28 -16 -77zM386 779q0 -23 -18 -47q-25 5 -36 5q-58 0 -128 -55l-13 36q84 102 145 102q24 0 37 -11t13 -30z" />
<glyph unicode="&#xc2;" horiz-adv-x="620" d="M383 633l228 -633h-144l-43 128h-228l-39 -128h-137l175 535h-59v98h247zM224 222h168l-69 206q-16 47 -19 78h-1q-1 -28 -16 -77zM342 813l83 -108h-79l-53 70l-54 -70h-78l84 109q16 20 36 20h25q20 0 36 -21z" />
<glyph unicode="&#xc3;" horiz-adv-x="620" d="M383 633l228 -633h-144l-43 128h-228l-39 -128h-137l175 535h-59v98h247zM224 222h168l-69 206q-16 47 -19 78h-1q-1 -28 -16 -77zM369 812h41q-1 -49 -16.5 -76.5t-58.5 -27.5q-22 0 -53 18t-45 18q-9 0 -18.5 -9t-12.5 -27h-40q1 49 16.5 76.5t58.5 27.5q22 0 53 -18 t45 -18q23 0 30 36z" />
<glyph unicode="&#xc4;" horiz-adv-x="620" d="M383 633l228 -633h-144l-43 128h-228l-39 -128h-137l175 535h-59v98h247zM224 222h168l-69 206q-16 47 -19 78h-1q-1 -28 -16 -77zM433 756q0 -25 -17 -41.5t-42 -16.5t-41.5 16.5t-16.5 41.5t16.5 42t41.5 17t42 -17t17 -42zM263 756q0 -25 -16.5 -41.5t-41.5 -16.5 t-42 16.5t-17 41.5t17 42t42 17t41.5 -17t16.5 -42z" />
<glyph unicode="&#xc5;" horiz-adv-x="620" d="M383 633l228 -633h-144l-43 128h-228l-39 -128h-137l175 535h-59v98h247zM224 222h168l-69 206q-16 47 -19 78h-1q-1 -28 -16 -77zM385 773q0 -38 -26 -62t-62 -24t-62 24t-26 62t26 62t62 24t62 -24t26 -62zM333 773q0 17 -10 28t-26 11t-26 -11t-10 -28t10 -28t26 -11 t26 11t10 28z" />
<glyph unicode="&#xc6;" horiz-adv-x="904" d="M568 99h294l-9 -99h-424v128h-213l-70 -128h-144l300 535h-63v98h600v-98h-271v-165h218v-96h-218v-175zM265 222h164v314q-6 -26 -36 -81z" />
<glyph unicode="&#xc7;" horiz-adv-x="578" d="M412 -99q0 -37 -32.5 -59.5t-94.5 -21.5l-13 40q76 3 76 27q0 11 -14.5 18.5t-31.5 12t-31.5 14t-14.5 22.5q0 15 12 39q-119 15 -176 102.5t-57 224.5q0 144 70 234t207 90q93 0 153 -48t74 -131l-141 -26q-21 99 -91 99q-61 0 -92.5 -57t-31.5 -153q0 -231 163 -231 q91 0 183 58l-8 -109q-35 -24 -90.5 -40t-113.5 -16h-1q-1 -3 -1 -9q0 -10 24.5 -18t48.5 -22.5t24 -39.5z" />
<glyph unicode="&#xc8;" horiz-adv-x="534" d="M210 99h284l-9 -99h-414v633h400v-98h-261v-165h212v-97h-212v-174zM373 718l-12 -36q-70 55 -128 55q-12 0 -37 -5q-18 24 -18 47q0 19 13 30t37 11q61 0 145 -102z" />
<glyph unicode="&#xc9;" horiz-adv-x="534" d="M210 99h284l-9 -99h-414v633h400v-98h-261v-165h212v-97h-212v-174zM376 779q0 -23 -18 -47q-25 5 -36 5q-58 0 -128 -55l-13 36q84 102 145 102q24 0 37 -11t13 -30z" />
<glyph unicode="&#xca;" horiz-adv-x="534" d="M210 99h284l-9 -99h-414v633h400v-98h-261v-165h212v-97h-212v-174zM324 813l83 -108h-79l-53 70l-54 -70h-78l84 109q16 20 36 20h25q20 0 36 -21z" />
<glyph unicode="&#xcb;" horiz-adv-x="534" d="M210 99h284l-9 -99h-414v633h400v-98h-261v-165h212v-97h-212v-174zM415 756q0 -25 -17 -41.5t-42 -16.5t-41.5 16.5t-16.5 41.5t16.5 42t41.5 17t42 -17t17 -42zM245 756q0 -25 -16.5 -41.5t-41.5 -16.5t-42 16.5t-17 41.5t17 42t42 17t41.5 -17t16.5 -42z" />
<glyph unicode="&#xcc;" horiz-adv-x="383" d="M326 77v-77h-269v77h64v477h-64v79h269v-79h-66v-477h66zM289 718l-12 -36q-70 55 -128 55q-12 0 -37 -5q-18 24 -18 47q0 19 13 30t37 11q61 0 145 -102z" />
<glyph unicode="&#xcd;" horiz-adv-x="383" d="M326 77v-77h-269v77h64v477h-64v79h269v-79h-66v-477h66zM289 779q0 -23 -18 -47q-25 5 -36 5q-58 0 -128 -55l-13 36q84 102 145 102q24 0 37 -11t13 -30z" />
<glyph unicode="&#xce;" horiz-adv-x="383" d="M326 77v-77h-269v77h64v477h-64v79h269v-79h-66v-477h66zM240 813l83 -108h-79l-53 70l-54 -70h-78l84 109q16 20 36 20h25q20 0 36 -21z" />
<glyph unicode="&#xcf;" horiz-adv-x="383" d="M326 77v-77h-269v77h64v477h-64v79h269v-79h-66v-477h66zM336 756q0 -25 -17 -41.5t-42 -16.5t-41.5 16.5t-16.5 41.5t16.5 42t41.5 17t42 -17t17 -42zM166 756q0 -25 -16.5 -41.5t-41.5 -16.5t-42 16.5t-17 41.5t17 42t42 17t41.5 -17t16.5 -42z" />
<glyph unicode="&#xd0;" horiz-adv-x="643" d="M608 314q0 -221 -156 -285q-72 -29 -180 -29h-193v269h-85v97h85v169h-61v98h250q157 0 234 -51q106 -71 106 -268zM460 321q0 138 -60 183q-42 31 -132 31h-50v-169h97v-97h-97v-171h63q75 0 116 29q63 45 63 194z" />
<glyph unicode="&#xd1;" horiz-adv-x="652" d="M581 633v-633h-92l-271 352q-23 30 -30 54v-406h-117v633h89l272 -352q25 -31 32 -54v406h117zM407 812h41q-1 -49 -16.5 -76.5t-58.5 -27.5q-22 0 -53 18t-45 18q-9 0 -18.5 -9t-12.5 -27h-40q1 49 16.5 76.5t58.5 27.5q22 0 53 -18t45 -18q23 0 30 36z" />
<glyph unicode="&#xd2;" horiz-adv-x="626" d="M591 317q0 -151 -71 -239t-207 -88t-207 88t-71 239t71 239t207 88t207 -88t71 -239zM443 317q0 220 -130 220t-130 -220t130 -220t130 220zM411 718l-12 -36q-70 55 -128 55q-12 0 -37 -5q-18 24 -18 47q0 19 13 30t37 11q61 0 145 -102z" />
<glyph unicode="&#xd3;" horiz-adv-x="626" d="M591 317q0 -151 -71 -239t-207 -88t-207 88t-71 239t71 239t207 88t207 -88t71 -239zM443 317q0 220 -130 220t-130 -220t130 -220t130 220zM411 779q0 -23 -18 -47q-25 5 -36 5q-58 0 -128 -55l-13 36q84 102 145 102q24 0 37 -11t13 -30z" />
<glyph unicode="&#xd4;" horiz-adv-x="626" d="M591 317q0 -151 -71 -239t-207 -88t-207 88t-71 239t71 239t207 88t207 -88t71 -239zM443 317q0 220 -130 220t-130 -220t130 -220t130 220zM362 813l83 -108h-79l-53 70l-54 -70h-78l84 109q16 20 36 20h25q20 0 36 -21z" />
<glyph unicode="&#xd5;" horiz-adv-x="626" d="M591 317q0 -151 -71 -239t-207 -88t-207 88t-71 239t71 239t207 88t207 -88t71 -239zM443 317q0 220 -130 220t-130 -220t130 -220t130 220zM394 812h41q-1 -49 -16.5 -76.5t-58.5 -27.5q-22 0 -53 18t-45 18q-10 0 -19 -9t-12 -27h-40q1 49 16.5 76.5t58.5 27.5 q22 0 53 -18t45 -18q23 0 30 36z" />
<glyph unicode="&#xd6;" horiz-adv-x="626" d="M591 317q0 -151 -71 -239t-207 -88t-207 88t-71 239t71 239t207 88t207 -88t71 -239zM443 317q0 220 -130 220t-130 -220t130 -220t130 220zM457 756q0 -25 -17 -41.5t-42 -16.5t-41.5 16.5t-16.5 41.5t16.5 42t41.5 17t42 -17t17 -42zM287 756q0 -25 -16.5 -41.5 t-41.5 -16.5t-42 16.5t-17 41.5t17 42t42 17t41.5 -17t16.5 -42z" />
<glyph unicode="&#xd7;" horiz-adv-x="535" d="M362 481l66 -65l-93 -94l91 -91l-67 -68l-92 92l-94 -94l-65 66l93 93l-91 92l67 68l92 -92z" />
<glyph unicode="&#xd8;" horiz-adv-x="626" d="M591 317q0 -151 -71 -239t-207 -88q-55 0 -100 15l-34 -74h-79l49 106q-114 83 -114 280q0 151 71 239t207 88q58 0 106 -17l35 75h78l-50 -109q109 -82 109 -276zM443 317q0 88 -22 143l-161 -351q24 -12 53 -12q130 0 130 220zM208 167l163 355q-25 15 -58 15 q-130 0 -130 -220q0 -95 25 -150z" />
<glyph unicode="&#xd9;" horiz-adv-x="635" d="M565 633v-399q0 -109 -45 -166q-61 -78 -204 -78q-134 0 -195 67q-51 56 -51 172v404h140v-398q0 -72 23 -102q27 -35 86 -35q57 0 85 33q25 31 25 103v399h136zM415 718l-12 -36q-70 55 -128 55q-12 0 -37 -5q-18 24 -18 47q0 19 13 30t37 11q61 0 145 -102z" />
<glyph unicode="&#xda;" horiz-adv-x="635" d="M565 633v-399q0 -109 -45 -166q-61 -78 -204 -78q-134 0 -195 67q-51 56 -51 172v404h140v-398q0 -72 23 -102q27 -35 86 -35q57 0 85 33q25 31 25 103v399h136zM419 779q0 -23 -18 -47q-25 5 -36 5q-58 0 -128 -55l-13 36q84 102 145 102q24 0 37 -11t13 -30z" />
<glyph unicode="&#xdb;" horiz-adv-x="635" d="M565 633v-399q0 -109 -45 -166q-61 -78 -204 -78q-134 0 -195 67q-51 56 -51 172v404h140v-398q0 -72 23 -102q27 -35 86 -35q57 0 85 33q25 31 25 103v399h136zM366 813l83 -108h-79l-53 70l-54 -70h-78l84 109q16 20 36 20h25q20 0 36 -21z" />
<glyph unicode="&#xdc;" horiz-adv-x="635" d="M565 633v-399q0 -109 -45 -166q-61 -78 -204 -78q-134 0 -195 67q-51 56 -51 172v404h140v-398q0 -72 23 -102q27 -35 86 -35q57 0 85 33q25 31 25 103v399h136zM464 756q0 -25 -17 -41.5t-42 -16.5t-41.5 16.5t-16.5 41.5t16.5 42t41.5 17t42 -17t17 -42zM294 756 q0 -25 -16.5 -41.5t-41.5 -16.5t-42 16.5t-17 41.5t17 42t42 17t41.5 -17t16.5 -42z" />
<glyph unicode="&#xdd;" horiz-adv-x="587" d="M445 633h136l-220 -415v-218h-139v220l-219 413h155l121 -237q23 -45 25 -70h1q3 27 23 68zM401 779q0 -23 -18 -47q-25 5 -36 5q-58 0 -128 -55l-13 36q84 102 145 102q24 0 37 -11t13 -30z" />
<glyph unicode="&#xde;" horiz-adv-x="586" d="M559 317q0 -127 -93 -177q-62 -34 -173 -34h-82v-106h-140v633h140v-109h77q124 0 188 -39q83 -50 83 -168zM415 315q0 71 -42 97q-32 20 -100 20h-62v-237h56q78 0 113 24t35 96z" />
<glyph unicode="&#xdf;" horiz-adv-x="659" d="M625 144q0 -73 -52 -113t-142 -40q-97 0 -170 32v102q75 -43 159 -43q81 0 81 49q0 24 -25 38.5t-61 23.5t-72 22.5t-61 45t-25 81.5q0 65 48.5 104t130.5 39q2 6 2 17q0 49 -27 76t-79 27q-64 0 -92 -39q-23 -32 -23 -103v-463h-133v391h-75v94h75v5q0 101 68.5 153.5 t178.5 52.5q105 0 168.5 -53t63.5 -156q0 -44 -11 -88q-35 7 -86 7q-85 0 -85 -50q0 -21 25 -34t61 -23t72 -24.5t61 -47.5t25 -83z" />
<glyph unicode="&#xe0;" horiz-adv-x="542" d="M525 95l-5 -76q-36 -25 -89 -25q-69 0 -86 51q-41 -54 -131 -54q-79 0 -125.5 42t-46.5 119q0 79 51 121.5t139 42.5q54 0 98 -16v13q0 47 -19 69q-23 26 -81 26q-74 0 -145 -36v90q70 32 166 32q115 0 169 -51q43 -40 43 -124v-207q0 -30 23 -30q22 0 39 13zM330 161v67 q-30 12 -69 12q-42 0 -63.5 -22.5t-21.5 -59.5q0 -39 20.5 -60t55.5 -21q37 0 58 23q20 22 20 61zM360 563l-12 -36q-70 55 -128 55q-12 0 -37 -5q-18 24 -18 47q0 19 13 30t37 11q61 0 145 -102z" />
<glyph unicode="&#xe1;" horiz-adv-x="542" d="M525 95l-5 -76q-36 -25 -89 -25q-69 0 -86 51q-41 -54 -131 -54q-79 0 -125.5 42t-46.5 119q0 79 51 121.5t139 42.5q54 0 98 -16v13q0 47 -19 69q-23 26 -81 26q-74 0 -145 -36v90q70 32 166 32q115 0 169 -51q43 -40 43 -124v-207q0 -30 23 -30q22 0 39 13zM330 161v67 q-30 12 -69 12q-42 0 -63.5 -22.5t-21.5 -59.5q0 -39 20.5 -60t55.5 -21q37 0 58 23q20 22 20 61zM353 624q0 -23 -18 -47q-25 5 -36 5q-58 0 -128 -55l-13 36q84 102 145 102q24 0 37 -11t13 -30z" />
<glyph unicode="&#xe2;" horiz-adv-x="542" d="M525 95l-5 -76q-36 -25 -89 -25q-69 0 -86 51q-41 -54 -131 -54q-79 0 -125.5 42t-46.5 119q0 79 51 121.5t139 42.5q54 0 98 -16v13q0 47 -19 69q-23 26 -81 26q-74 0 -145 -36v90q70 32 166 32q115 0 169 -51q43 -40 43 -124v-207q0 -30 23 -30q22 0 39 13zM330 161v67 q-30 12 -69 12q-42 0 -63.5 -22.5t-21.5 -59.5q0 -39 20.5 -60t55.5 -21q37 0 58 23q20 22 20 61zM318 647l83 -108h-79l-53 70l-54 -70h-78l84 109q16 20 36 20h25q20 0 36 -21z" />
<glyph unicode="&#xe3;" horiz-adv-x="542" d="M525 95l-5 -76q-36 -25 -89 -25q-69 0 -86 51q-41 -54 -131 -54q-79 0 -125.5 42t-46.5 119q0 79 51 121.5t139 42.5q54 0 98 -16v13q0 47 -19 69q-23 26 -81 26q-74 0 -145 -36v90q70 32 166 32q115 0 169 -51q43 -40 43 -124v-207q0 -30 23 -30q22 0 39 13zM330 161v67 q-30 12 -69 12q-42 0 -63.5 -22.5t-21.5 -59.5q0 -39 20.5 -60t55.5 -21q37 0 58 23q20 22 20 61zM347 657h41q-1 -49 -16.5 -76.5t-58.5 -27.5q-22 0 -53 18t-45 18q-9 0 -18.5 -9t-12.5 -27h-40q1 49 16.5 76.5t58.5 27.5q22 0 53 -18t45 -18q23 0 30 36z" />
<glyph unicode="&#xe4;" horiz-adv-x="542" d="M525 95l-5 -76q-36 -25 -89 -25q-69 0 -86 51q-41 -54 -131 -54q-79 0 -125.5 42t-46.5 119q0 79 51 121.5t139 42.5q54 0 98 -16v13q0 47 -19 69q-23 26 -81 26q-74 0 -145 -36v90q70 32 166 32q115 0 169 -51q43 -40 43 -124v-207q0 -30 23 -30q22 0 39 13zM330 161v67 q-30 12 -69 12q-42 0 -63.5 -22.5t-21.5 -59.5q0 -39 20.5 -60t55.5 -21q37 0 58 23q20 22 20 61zM408 612q0 -25 -17 -41.5t-42 -16.5t-41.5 16.5t-16.5 41.5t16.5 42t41.5 17t42 -17t17 -42zM238 612q0 -25 -16.5 -41.5t-41.5 -16.5t-42 16.5t-17 41.5t17 42t42 17 t41.5 -17t16.5 -42z" />
<glyph unicode="&#xe5;" horiz-adv-x="542" d="M525 95l-5 -76q-36 -25 -89 -25q-69 0 -86 51q-41 -54 -131 -54q-79 0 -125.5 42t-46.5 119q0 79 51 121.5t139 42.5q54 0 98 -16v13q0 47 -19 69q-23 26 -81 26q-74 0 -145 -36v90q70 32 166 32q115 0 169 -51q43 -40 43 -124v-207q0 -30 23 -30q22 0 39 13zM330 161v67 q-30 12 -69 12q-42 0 -63.5 -22.5t-21.5 -59.5q0 -39 20.5 -60t55.5 -21q37 0 58 23q20 22 20 61zM352 623q0 -38 -26 -62t-62 -24t-62 24t-26 62t26 62t62 24t62 -24t26 -62zM300 623q0 17 -10 28t-26 11t-26 -11t-10 -28t10 -28t26 -11t26 11t10 28z" />
<glyph unicode="&#xe6;" horiz-adv-x="815" d="M778 271q0 -40 -13 -56t-47 -16h-251q7 -58 41 -87t90 -29q88 0 159 49l-5 -91q-70 -50 -181 -50q-120 0 -182 71q-25 -32 -72 -51.5t-102 -19.5q-79 0 -125.5 42t-46.5 119q0 79 51 121.5t139 42.5q54 0 98 -16v13q0 47 -19 69q-23 26 -81 26q-74 0 -145 -36v90 q70 32 166 32q108 0 164 -48q61 48 143 48q99 0 159 -61t60 -162zM650 285q0 57 -24 88t-67 31q-88 0 -94 -129h175q10 0 10 10zM331 161v67q-31 12 -69 12q-42 0 -63.5 -22.5t-21.5 -59.5q0 -39 20.5 -60t55.5 -21q37 0 58 23q20 22 20 61z" />
<glyph unicode="&#xe7;" horiz-adv-x="486" d="M355 -99q0 -37 -32.5 -59.5t-94.5 -21.5l-13 40q76 3 76 27q0 11 -14.5 18.5t-31.5 12t-31.5 14t-14.5 22.5q0 14 13 41q-87 14 -134.5 77.5t-47.5 167.5q0 117 60.5 185.5t167.5 68.5q80 0 134 -40q49 -38 65 -115l-121 -25q-10 46 -27 68t-50 22q-46 0 -70 -42.5 t-24 -112.5q0 -165 127 -165q78 0 149 47l-5 -94q-70 -46 -170 -46h-7q-1 -3 -1 -10q0 -8 15 -15.5t33.5 -12.5t33.5 -18.5t15 -33.5z" />
<glyph unicode="&#xe8;" horiz-adv-x="516" d="M479 271q0 -39 -13.5 -55.5t-46.5 -16.5h-252q7 -58 41 -87t90 -29q88 0 159 49l-5 -91q-70 -50 -181 -50q-115 0 -178 67t-63 182q0 118 62.5 186t166.5 68q99 0 159.5 -61t60.5 -162zM351 285q0 57 -24.5 88t-67.5 31q-40 0 -65.5 -32t-28.5 -97h177q9 0 9 10zM364 563 l-12 -36q-70 55 -128 55q-12 0 -37 -5q-18 24 -18 47q0 19 13 30t37 11q61 0 145 -102z" />
<glyph unicode="&#xe9;" horiz-adv-x="516" d="M479 271q0 -39 -13.5 -55.5t-46.5 -16.5h-252q7 -58 41 -87t90 -29q88 0 159 49l-5 -91q-70 -50 -181 -50q-115 0 -178 67t-63 182q0 118 62.5 186t166.5 68q99 0 159.5 -61t60.5 -162zM351 285q0 57 -24.5 88t-67.5 31q-40 0 -65.5 -32t-28.5 -97h177q9 0 9 10zM350 624 q0 -23 -18 -47q-25 5 -36 5q-58 0 -128 -55l-13 36q84 102 145 102q24 0 37 -11t13 -30z" />
<glyph unicode="&#xea;" horiz-adv-x="516" d="M479 271q0 -39 -13.5 -55.5t-46.5 -16.5h-252q7 -58 41 -87t90 -29q88 0 159 49l-5 -91q-70 -50 -181 -50q-115 0 -178 67t-63 182q0 118 62.5 186t166.5 68q99 0 159.5 -61t60.5 -162zM351 285q0 57 -24.5 88t-67.5 31q-40 0 -65.5 -32t-28.5 -97h177q9 0 9 10zM310 647 l83 -108h-79l-53 70l-54 -70h-78l84 109q16 20 36 20h25q20 0 36 -21z" />
<glyph unicode="&#xeb;" horiz-adv-x="516" d="M479 271q0 -39 -13.5 -55.5t-46.5 -16.5h-252q7 -58 41 -87t90 -29q88 0 159 49l-5 -91q-70 -50 -181 -50q-115 0 -178 67t-63 182q0 118 62.5 186t166.5 68q99 0 159.5 -61t60.5 -162zM351 285q0 57 -24.5 88t-67.5 31q-40 0 -65.5 -32t-28.5 -97h177q9 0 9 10zM406 612 q0 -25 -17 -41.5t-42 -16.5t-41.5 16.5t-16.5 41.5t16.5 42t41.5 17t42 -17t17 -42zM236 612q0 -25 -16.5 -41.5t-41.5 -16.5t-42 16.5t-17 41.5t17 42t42 17t41.5 -17t16.5 -42z" />
<glyph unicode="&#xec;" d="M277 95l-4 -76q-37 -25 -88 -25q-60 0 -85 34q-18 25 -18 78v285h-58v94h191v-373q0 -30 24 -30q21 0 38 13zM234 563l-12 -36q-70 55 -128 55q-12 0 -37 -5q-18 24 -18 47q0 19 13 30t37 11q61 0 145 -102z" />
<glyph unicode="&#xed;" d="M277 95l-4 -76q-37 -25 -88 -25q-60 0 -85 34q-18 25 -18 78v285h-58v94h191v-373q0 -30 24 -30q21 0 38 13zM234 624q0 -23 -18 -47q-25 5 -36 5q-58 0 -128 -55l-13 36q84 102 145 102q24 0 37 -11t13 -30z" />
<glyph unicode="&#xee;" d="M277 95l-4 -76q-37 -25 -88 -25q-60 0 -85 34q-18 25 -18 78v285h-58v94h191v-373q0 -30 24 -30q21 0 38 13zM190 647l83 -108h-79l-53 70l-54 -70h-78l84 109q16 20 36 20h25q20 0 36 -21z" />
<glyph unicode="&#xef;" d="M277 95l-4 -76q-37 -25 -88 -25q-60 0 -85 34q-18 25 -18 78v285h-58v94h191v-373q0 -30 24 -30q21 0 38 13zM290 612q0 -25 -17 -41.5t-42 -16.5t-41.5 16.5t-16.5 41.5t16.5 42t41.5 17t42 -17t17 -42zM120 612q0 -25 -16.5 -41.5t-41.5 -16.5t-42 16.5t-17 41.5t17 42 t42 17t41.5 -17t16.5 -42z" />
<glyph unicode="&#xf0;" horiz-adv-x="560" d="M519 284q0 -134 -60.5 -214t-182.5 -80q-108 0 -167.5 64t-59.5 165q0 102 56 156.5t150 54.5q67 0 119 -27q-11 85 -56 126l-23 -53l-50 20l26 61q-33 11 -91 13l12 74q62 0 111 -12l27 63l51 -20l-26 -62q164 -74 164 -329zM383 261q0 29 -2 59q-45 26 -93 26 q-52 0 -80 -33.5t-28 -94.5q0 -62 27 -97t71 -35q105 0 105 175z" />
<glyph unicode="&#xf1;" horiz-adv-x="569" d="M509 317v-317h-133v296q0 49 -16 71q-21 27 -63 27q-44 0 -68 -31q-20 -26 -20 -85v-278h-133v391h-58v94h137l24 -62q53 71 155 71q88 0 133 -47q42 -45 42 -130zM369 657h41q-1 -49 -16.5 -76.5t-58.5 -27.5q-22 0 -53 18t-45 18q-9 0 -18.5 -9t-12.5 -27h-40 q1 49 16.5 76.5t58.5 27.5q22 0 53 -18t45 -18q23 0 30 36z" />
<glyph unicode="&#xf2;" horiz-adv-x="532" d="M502 242q0 -119 -61.5 -185t-174.5 -66t-174.5 66t-61.5 185t61.5 185.5t174.5 66.5t174.5 -66.5t61.5 -185.5zM367 242q0 161 -101 161t-101 -161q0 -160 101 -160t101 160zM372 563l-12 -36q-70 55 -128 55q-12 0 -37 -5q-18 24 -18 47q0 19 13 30t37 11q61 0 145 -102 z" />
<glyph unicode="&#xf3;" horiz-adv-x="532" d="M502 242q0 -119 -61.5 -185t-174.5 -66t-174.5 66t-61.5 185t61.5 185.5t174.5 66.5t174.5 -66.5t61.5 -185.5zM367 242q0 161 -101 161t-101 -161q0 -160 101 -160t101 160zM353 624q0 -23 -18 -47q-25 5 -36 5q-58 0 -128 -55l-13 36q84 102 145 102q24 0 37 -11 t13 -30z" />
<glyph unicode="&#xf4;" horiz-adv-x="532" d="M502 242q0 -119 -61.5 -185t-174.5 -66t-174.5 66t-61.5 185t61.5 185.5t174.5 66.5t174.5 -66.5t61.5 -185.5zM367 242q0 161 -101 161t-101 -161q0 -160 101 -160t101 160zM315 647l83 -108h-79l-53 70l-54 -70h-78l84 109q16 20 36 20h25q20 0 36 -21z" />
<glyph unicode="&#xf5;" horiz-adv-x="532" d="M502 242q0 -119 -61.5 -185t-174.5 -66t-174.5 66t-61.5 185t61.5 185.5t174.5 66.5t174.5 -66.5t61.5 -185.5zM367 242q0 161 -101 161t-101 -161q0 -160 101 -160t101 160zM347 657h41q-1 -49 -16.5 -76.5t-58.5 -27.5q-22 0 -53 18t-45 18q-9 0 -18.5 -9t-12.5 -27 h-40q1 49 16.5 76.5t58.5 27.5q22 0 53 -18t45 -18q23 0 30 36z" />
<glyph unicode="&#xf6;" horiz-adv-x="532" d="M502 242q0 -119 -61.5 -185t-174.5 -66t-174.5 66t-61.5 185t61.5 185.5t174.5 66.5t174.5 -66.5t61.5 -185.5zM367 242q0 161 -101 161t-101 -161q0 -160 101 -160t101 160zM410 612q0 -25 -17 -41.5t-42 -16.5t-41.5 16.5t-16.5 41.5t16.5 42t41.5 17t42 -17t17 -42z M240 612q0 -25 -16.5 -41.5t-41.5 -16.5t-42 16.5t-17 41.5t17 42t42 17t41.5 -17t16.5 -42z" />
<glyph unicode="&#xf7;" horiz-adv-x="535" d="M335 464q0 -26 -19 -44.5t-45 -18.5t-45 18.5t-19 44.5t19 44.5t45 18.5t45 -18.5t19 -44.5zM448 367v-92h-360v92h360zM335 178q0 -26 -19 -45t-45 -19t-45 19t-19 45t19 44.5t45 18.5t45 -18.5t19 -44.5z" />
<glyph unicode="&#xf8;" horiz-adv-x="534" d="M504 243q0 -119 -62 -185.5t-175 -66.5q-39 0 -77 10l-32 -70h-67l42 93q-103 63 -103 219q0 118 62 184.5t175 66.5q41 0 76 -9l29 64h67l-40 -87q105 -62 105 -219zM368 243q0 69 -19 109l-119 -263q16 -6 37 -6q101 0 101 160zM184 136l119 260q-17 6 -36 6 q-101 0 -101 -159q0 -69 18 -107z" />
<glyph unicode="&#xf9;" horiz-adv-x="574" d="M555 95l-5 -75q-38 -26 -89 -26q-67 0 -86 50q-51 -53 -140 -53q-88 0 -133 47q-42 45 -42 130v317h133v-296q0 -49 16 -71q21 -27 63 -27q44 0 68 31q20 26 20 85v278h133v-373q0 -30 24 -30q21 0 38 13zM378 563l-12 -36q-70 55 -128 55q-12 0 -37 -5q-18 24 -18 47 q0 19 13 30t37 11q61 0 145 -102z" />
<glyph unicode="&#xfa;" horiz-adv-x="574" d="M555 95l-5 -75q-38 -26 -89 -26q-67 0 -86 50q-51 -53 -140 -53q-88 0 -133 47q-42 45 -42 130v317h133v-296q0 -49 16 -71q21 -27 63 -27q44 0 68 31q20 26 20 85v278h133v-373q0 -30 24 -30q21 0 38 13zM378 624q0 -23 -18 -47q-25 5 -36 5q-58 0 -128 -55l-13 36 q84 102 145 102q24 0 37 -11t13 -30z" />
<glyph unicode="&#xfb;" horiz-adv-x="574" d="M555 95l-5 -75q-38 -26 -89 -26q-67 0 -86 50q-51 -53 -140 -53q-88 0 -133 47q-42 45 -42 130v317h133v-296q0 -49 16 -71q21 -27 63 -27q44 0 68 31q20 26 20 85v278h133v-373q0 -30 24 -30q21 0 38 13zM328 647l83 -108h-79l-53 70l-54 -70h-78l84 109q16 20 36 20h25 q20 0 36 -21z" />
<glyph unicode="&#xfc;" horiz-adv-x="574" d="M555 95l-5 -75q-38 -26 -89 -26q-67 0 -86 50q-51 -53 -140 -53q-88 0 -133 47q-42 45 -42 130v317h133v-296q0 -49 16 -71q21 -27 63 -27q44 0 68 31q20 26 20 85v278h133v-373q0 -30 24 -30q21 0 38 13zM421 612q0 -25 -17 -41.5t-42 -16.5t-41.5 16.5t-16.5 41.5 t16.5 42t41.5 17t42 -17t17 -42zM251 612q0 -25 -16.5 -41.5t-41.5 -16.5t-42 16.5t-17 41.5t17 42t42 17t41.5 -17t16.5 -42z" />
<glyph unicode="&#xfd;" horiz-adv-x="557" d="M493 485v-467q0 -114 -46 -167q-54 -63 -179 -63q-107 0 -186 42l8 98q74 -45 159 -45q58 0 84 26q27 27 27 96v27q-53 -41 -125 -41q-88 0 -133 47q-42 45 -42 130v317h133v-296q0 -49 16 -71q21 -27 63 -27q44 0 68 31q20 26 20 85v278h133zM378 624q0 -23 -18 -47 q-25 5 -36 5q-58 0 -128 -55l-13 36q84 102 145 102q24 0 37 -11t13 -30z" />
<glyph unicode="&#xfe;" horiz-adv-x="551" d="M521 243q0 -117 -49 -184.5t-148 -67.5q-73 0 -122 46v-236h-133v883h133v-235q48 45 122 45q99 0 148 -66.5t49 -184.5zM387 243q0 153 -97 153q-46 0 -69 -33q-19 -25 -19 -83v-74q0 -59 19 -84q23 -33 69 -33q97 0 97 154z" />
<glyph unicode="&#xff;" horiz-adv-x="557" d="M493 485v-467q0 -114 -46 -167q-54 -63 -179 -63q-107 0 -186 42l8 98q74 -45 159 -45q58 0 84 26q27 27 27 96v27q-53 -41 -125 -41q-88 0 -133 47q-42 45 -42 130v317h133v-296q0 -49 16 -71q21 -27 63 -27q44 0 68 31q20 26 20 85v278h133zM420 612q0 -25 -17 -41.5 t-42 -16.5t-41.5 16.5t-16.5 41.5t16.5 42t41.5 17t42 -17t17 -42zM250 612q0 -25 -16.5 -41.5t-41.5 -16.5t-42 16.5t-17 41.5t17 42t42 17t41.5 -17t16.5 -42z" />
<glyph unicode="&#x100;" horiz-adv-x="620" d="M383 633l228 -633h-144l-43 128h-228l-39 -128h-137l175 535h-59v98h247zM224 222h168l-69 206q-16 47 -19 78h-1q-1 -28 -16 -77zM398 782v-64h-234v64h234z" />
<glyph unicode="&#x101;" horiz-adv-x="542" d="M525 95l-5 -76q-36 -25 -89 -25q-69 0 -86 51q-41 -54 -131 -54q-79 0 -125.5 42t-46.5 119q0 79 51 121.5t139 42.5q54 0 98 -16v13q0 47 -19 69q-23 26 -81 26q-74 0 -145 -36v90q70 32 166 32q115 0 169 -51q43 -40 43 -124v-207q0 -30 23 -30q22 0 39 13zM330 161v67 q-30 12 -69 12q-42 0 -63.5 -22.5t-21.5 -59.5q0 -39 20.5 -60t55.5 -21q37 0 58 23q20 22 20 61zM376 632v-64h-234v64h234z" />
<glyph unicode="&#x102;" horiz-adv-x="620" d="M383 633l228 -633h-144l-43 128h-228l-39 -128h-137l175 535h-59v98h247zM224 222h168l-69 206q-16 47 -19 78h-1q-1 -28 -16 -77zM354 812h51q-1 -54 -32 -84t-84 -30t-83.5 30t-31.5 84h50q12 -57 65 -57t65 57z" />
<glyph unicode="&#x103;" horiz-adv-x="542" d="M525 95l-5 -76q-36 -25 -89 -25q-69 0 -86 51q-41 -54 -131 -54q-79 0 -125.5 42t-46.5 119q0 79 51 121.5t139 42.5q54 0 98 -16v13q0 47 -19 69q-23 26 -81 26q-74 0 -145 -36v90q70 32 166 32q115 0 169 -51q43 -40 43 -124v-207q0 -30 23 -30q22 0 39 13zM330 161v67 q-30 12 -69 12q-42 0 -63.5 -22.5t-21.5 -59.5q0 -39 20.5 -60t55.5 -21q37 0 58 23q20 22 20 61zM331 652h51q-1 -54 -32 -84t-84 -30t-83.5 30t-31.5 84h50q12 -57 65 -57t65 57z" />
<glyph unicode="&#x104;" horiz-adv-x="620" d="M383 633l228 -633h-42q-38 0 -60 -20t-22 -52q0 -29 24.5 -49t65.5 -24l-11 -38q-68 2 -107.5 32t-39.5 77t45 81l-40 121h-228l-39 -128h-137l175 535h-59v98h247zM224 222h168l-69 206q-16 47 -19 78h-1q-1 -28 -16 -77z" />
<glyph unicode="&#x105;" horiz-adv-x="542" d="M525 95l-5 -76q-31 -14 -51.5 -38.5t-20.5 -52.5q0 -29 24.5 -49t65.5 -24l-11 -38q-68 2 -107.5 32t-39.5 77q0 39 29 70q-50 6 -64 49q-41 -54 -131 -54q-79 0 -125.5 42t-46.5 119q0 79 51 121.5t139 42.5q54 0 98 -16v13q0 47 -19 69q-23 26 -81 26q-74 0 -145 -36 v90q70 32 166 32q115 0 169 -51q43 -40 43 -124v-207q0 -30 23 -30q22 0 39 13zM330 161v67q-30 12 -69 12q-42 0 -63.5 -22.5t-21.5 -59.5q0 -39 20.5 -60t55.5 -21q37 0 58 23q20 22 20 61z" />
<glyph unicode="&#x106;" horiz-adv-x="578" d="M539 465l-141 -26q-21 99 -91 99q-61 0 -92.5 -57t-31.5 -153q0 -231 163 -231q91 0 183 58l-8 -109q-35 -24 -90.5 -40t-113.5 -16q-144 0 -213 89.5t-69 240.5q0 144 70 234t207 90q93 0 153 -48t74 -131zM389 779q0 -23 -18 -47q-25 5 -36 5q-58 0 -128 -55l-13 36 q84 102 145 102q24 0 37 -11t13 -30z" />
<glyph unicode="&#x107;" horiz-adv-x="486" d="M457 339l-121 -25q-10 46 -27 68t-50 22q-46 0 -70 -42.5t-24 -112.5q0 -165 127 -165q78 0 149 47l-5 -94q-70 -46 -170 -46q-112 0 -174 65t-62 184q0 117 60.5 185.5t167.5 68.5q80 0 134 -40q49 -38 65 -115zM345 624q0 -23 -18 -47q-25 5 -36 5q-58 0 -128 -55 l-13 36q84 102 145 102q24 0 37 -11t13 -30z" />
<glyph unicode="&#x108;" horiz-adv-x="578" d="M539 465l-141 -26q-21 99 -91 99q-61 0 -92.5 -57t-31.5 -153q0 -231 163 -231q91 0 183 58l-8 -109q-35 -24 -90.5 -40t-113.5 -16q-144 0 -213 89.5t-69 240.5q0 144 70 234t207 90q93 0 153 -48t74 -131zM360 813l83 -108h-79l-53 70l-54 -70h-78l84 109q16 20 36 20 h25q20 0 36 -21z" />
<glyph unicode="&#x109;" horiz-adv-x="486" d="M457 339l-121 -25q-10 46 -27 68t-50 22q-46 0 -70 -42.5t-24 -112.5q0 -165 127 -165q78 0 149 47l-5 -94q-70 -46 -170 -46q-112 0 -174 65t-62 184q0 117 60.5 185.5t167.5 68.5q80 0 134 -40q49 -38 65 -115zM308 647l83 -108h-79l-53 70l-54 -70h-78l84 109 q16 20 36 20h25q20 0 36 -21z" />
<glyph unicode="&#x10a;" horiz-adv-x="578" d="M539 465l-141 -26q-21 99 -91 99q-61 0 -92.5 -57t-31.5 -153q0 -231 163 -231q91 0 183 58l-8 -109q-35 -24 -90.5 -40t-113.5 -16q-144 0 -213 89.5t-69 240.5q0 144 70 234t207 90q93 0 153 -48t74 -131zM372 763q0 -27 -19.5 -46t-46.5 -19q-25 0 -44 19.5t-19 45.5 q0 27 19 45t46 18q26 0 45 -19t19 -44z" />
<glyph unicode="&#x10b;" horiz-adv-x="486" d="M457 339l-121 -25q-10 46 -27 68t-50 22q-46 0 -70 -42.5t-24 -112.5q0 -165 127 -165q78 0 149 47l-5 -94q-70 -46 -170 -46q-112 0 -174 65t-62 184q0 117 60.5 185.5t167.5 68.5q80 0 134 -40q49 -38 65 -115zM325 610q0 -27 -19.5 -46t-46.5 -19q-25 0 -44 19.5 t-19 45.5q0 27 19 45t46 18q26 0 45 -19t19 -44z" />
<glyph unicode="&#x10c;" horiz-adv-x="578" d="M539 465l-141 -26q-21 99 -91 99q-61 0 -92.5 -57t-31.5 -153q0 -231 163 -231q91 0 183 58l-8 -109q-35 -24 -90.5 -40t-113.5 -16q-144 0 -213 89.5t-69 240.5q0 144 70 234t207 90q93 0 153 -48t74 -131zM357 825h78l-78 -103q-15 -20 -36 -20h-25q-19 0 -35 20 l-80 103h77l50 -68z" />
<glyph unicode="&#x10d;" horiz-adv-x="486" d="M457 339l-121 -25q-10 46 -27 68t-50 22q-46 0 -70 -42.5t-24 -112.5q0 -165 127 -165q78 0 149 47l-5 -94q-70 -46 -170 -46q-112 0 -174 65t-62 184q0 117 60.5 185.5t167.5 68.5q80 0 134 -40q49 -38 65 -115zM306 668h78l-78 -103q-15 -20 -36 -20h-25q-19 0 -35 20 l-80 103h77l50 -68z" />
<glyph unicode="&#x10e;" horiz-adv-x="644" d="M609 314q0 -221 -156 -285q-73 -29 -180 -29h-194v535h-61v98h251q157 0 234 -51q106 -71 106 -268zM461 321q0 138 -60 183q-42 31 -132 31h-51v-437h64q75 0 116 29q63 45 63 194zM352 825h78l-78 -103q-15 -20 -36 -20h-25q-19 0 -35 20l-80 103h77l50 -68z" />
<glyph unicode="&#x10f;" horiz-adv-x="644" d="M636 620q0 -41 -28.5 -86t-71.5 -65l-25 31q20 16 36 39.5t20 39.5q-40 13 -40 53q0 22 13.5 37t37.5 15q27 0 42.5 -17.5t15.5 -46.5zM545 95l-5 -75q-38 -26 -90 -26q-68 0 -88 52q-47 -55 -132 -55q-94 0 -147 60.5t-53 169.5q0 124 70.5 198.5t193.5 74.5q28 0 56 -5 v101h-58v94h191v-572q0 -30 23 -30q22 0 39 13zM350 191v214q-18 5 -46 5q-67 0 -103 -48t-36 -135q0 -64 24.5 -102t73.5 -38q46 0 67 28q20 25 20 76z" />
<glyph unicode="&#x110;" horiz-adv-x="643" d="M608 314q0 -221 -156 -285q-72 -29 -180 -29h-193v269h-85v97h85v169h-61v98h250q157 0 234 -51q106 -71 106 -268zM460 321q0 138 -60 183q-42 31 -132 31h-50v-169h97v-97h-97v-171h63q75 0 116 29q63 45 63 194z" />
<glyph unicode="&#x111;" horiz-adv-x="564" d="M215 535v93h135v56h133v-56h69v-93h-69v-423q0 -30 23 -30q22 0 39 13l-5 -75q-38 -26 -90 -26q-68 0 -88 52q-47 -55 -132 -55q-94 0 -147 60.5t-53 169.5q0 124 70.5 198.5t193.5 74.5q28 0 56 -5v46h-135zM350 191v214q-18 5 -46 5q-67 0 -103 -48t-36 -135 q0 -64 24.5 -102t73.5 -38q46 0 67 28q20 25 20 76z" />
<glyph unicode="&#x112;" horiz-adv-x="534" d="M210 99h284l-9 -99h-414v633h400v-98h-261v-165h212v-97h-212v-174zM389 782v-64h-234v64h234z" />
<glyph unicode="&#x113;" horiz-adv-x="516" d="M479 271q0 -39 -13.5 -55.5t-46.5 -16.5h-252q7 -58 41 -87t90 -29q88 0 159 49l-5 -91q-70 -50 -181 -50q-115 0 -178 67t-63 182q0 118 62.5 186t166.5 68q99 0 159.5 -61t60.5 -162zM351 285q0 57 -24.5 88t-67.5 31q-40 0 -65.5 -32t-28.5 -97h177q9 0 9 10zM376 632 v-64h-234v64h234z" />
<glyph unicode="&#x114;" horiz-adv-x="534" d="M210 99h284l-9 -99h-414v633h400v-98h-261v-165h212v-97h-212v-174zM336 812h51q-1 -54 -32 -84t-84 -30t-83.5 30t-31.5 84h50q12 -57 65 -57t65 57z" />
<glyph unicode="&#x115;" horiz-adv-x="516" d="M479 271q0 -39 -13.5 -55.5t-46.5 -16.5h-252q7 -58 41 -87t90 -29q88 0 159 49l-5 -91q-70 -50 -181 -50q-115 0 -178 67t-63 182q0 118 62.5 186t166.5 68q99 0 159.5 -61t60.5 -162zM351 285q0 57 -24.5 88t-67.5 31q-40 0 -65.5 -32t-28.5 -97h177q9 0 9 10zM325 652 h51q-1 -54 -32 -84t-84 -30t-83.5 30t-31.5 84h50q12 -57 65 -57t65 57z" />
<glyph unicode="&#x116;" horiz-adv-x="534" d="M210 99h284l-9 -99h-414v633h400v-98h-261v-165h212v-97h-212v-174zM332 763q0 -27 -19.5 -46t-46.5 -19q-25 0 -44 19.5t-19 45.5q0 27 19 45t46 18q26 0 45 -19t19 -44z" />
<glyph unicode="&#x117;" horiz-adv-x="516" d="M479 271q0 -39 -13.5 -55.5t-46.5 -16.5h-252q7 -58 41 -87t90 -29q88 0 159 49l-5 -91q-70 -50 -181 -50q-115 0 -178 67t-63 182q0 118 62.5 186t166.5 68q99 0 159.5 -61t60.5 -162zM351 285q0 57 -24.5 88t-67.5 31q-40 0 -65.5 -32t-28.5 -97h177q9 0 9 10zM322 610 q0 -27 -19.5 -46t-46.5 -19q-25 0 -44 19.5t-19 45.5q0 27 19 45t46 18q26 0 45 -19t19 -44z" />
<glyph unicode="&#x118;" horiz-adv-x="534" d="M210 99h284l-9 -99h-87q-34 0 -55.5 -20t-21.5 -52q0 -29 24.5 -49t65.5 -24l-11 -38q-68 2 -107.5 32t-39.5 77q0 43 36 74h-218v633h400v-98h-261v-165h212v-97h-212v-174z" />
<glyph unicode="&#x119;" horiz-adv-x="516" d="M479 271q0 -39 -13.5 -55.5t-46.5 -16.5h-252q7 -58 41 -87t90 -29q88 0 159 49l-5 -91q-28 -21 -78 -36q-27 -8 -42 -29t-15 -47q0 -30 24 -50t66 -24l-11 -38q-68 2 -107.5 32t-39.5 77q0 39 25 65h-3q-115 0 -178 67t-63 182q0 118 62.5 186t166.5 68q99 0 159.5 -61 t60.5 -162zM351 285q0 57 -24.5 88t-67.5 31q-40 0 -65.5 -32t-28.5 -97h177q9 0 9 10z" />
<glyph unicode="&#x11a;" horiz-adv-x="534" d="M210 99h284l-9 -99h-414v633h400v-98h-261v-165h212v-97h-212v-174zM329 825h78l-78 -103q-15 -20 -36 -20h-25q-19 0 -35 20l-80 103h77l50 -68z" />
<glyph unicode="&#x11b;" horiz-adv-x="516" d="M479 271q0 -39 -13.5 -55.5t-46.5 -16.5h-252q7 -58 41 -87t90 -29q88 0 159 49l-5 -91q-70 -50 -181 -50q-115 0 -178 67t-63 182q0 118 62.5 186t166.5 68q99 0 159.5 -61t60.5 -162zM351 285q0 57 -24.5 88t-67.5 31q-40 0 -65.5 -32t-28.5 -97h177q9 0 9 10zM307 668 h78l-78 -103q-15 -20 -36 -20h-25q-19 0 -35 20l-80 103h77l50 -68z" />
<glyph unicode="&#x11c;" horiz-adv-x="630" d="M571 307v-307h-80l-22 36q-67 -46 -162 -46q-137 0 -204.5 88.5t-67.5 238.5q0 157 76.5 242t210.5 85q101 0 163.5 -48.5t79.5 -133.5l-144 -24q-24 100 -105 100q-64 0 -98.5 -59t-34.5 -155q0 -228 155 -228q56 0 96 27v101h-76v83h213zM365 813l83 -108h-79l-53 70 l-54 -70h-78l84 109q16 20 36 20h25q20 0 36 -21z" />
<glyph unicode="&#x11d;" horiz-adv-x="551" d="M488 465v-447q0 -114 -46 -167q-54 -63 -179 -63q-107 0 -186 42l8 98q74 -45 159 -45q58 0 84 26q27 27 27 96v41q-41 -48 -121 -48q-96 0 -149 59t-53 165q0 127 76.5 199.5t204.5 72.5q95 0 175 -29zM355 191v208q-19 7 -45 7q-67 0 -105 -47t-38 -128 q0 -68 25.5 -104t73.5 -36q43 0 67 27q22 23 22 73zM339 647l83 -108h-79l-53 70l-54 -70h-78l84 109q16 20 36 20h25q20 0 36 -21z" />
<glyph unicode="&#x11e;" horiz-adv-x="630" d="M571 307v-307h-80l-22 36q-67 -46 -162 -46q-137 0 -204.5 88.5t-67.5 238.5q0 157 76.5 242t210.5 85q101 0 163.5 -48.5t79.5 -133.5l-144 -24q-24 100 -105 100q-64 0 -98.5 -59t-34.5 -155q0 -228 155 -228q56 0 96 27v101h-76v83h213zM386 812h51q-1 -54 -32 -84 t-84 -30t-83.5 30t-31.5 84h50q12 -57 65 -57t65 57z" />
<glyph unicode="&#x11f;" horiz-adv-x="551" d="M488 465v-447q0 -114 -46 -167q-54 -63 -179 -63q-107 0 -186 42l8 98q74 -45 159 -45q58 0 84 26q27 27 27 96v41q-41 -48 -121 -48q-96 0 -149 59t-53 165q0 127 76.5 199.5t204.5 72.5q95 0 175 -29zM355 191v208q-19 7 -45 7q-67 0 -105 -47t-38 -128 q0 -68 25.5 -104t73.5 -36q43 0 67 27q22 23 22 73zM348 652h51q-1 -54 -32 -84t-84 -30t-83.5 30t-31.5 84h50q12 -57 65 -57t65 57z" />
<glyph unicode="&#x120;" horiz-adv-x="630" d="M571 307v-307h-80l-22 36q-67 -46 -162 -46q-137 0 -204.5 88.5t-67.5 238.5q0 157 76.5 242t210.5 85q101 0 163.5 -48.5t79.5 -133.5l-144 -24q-24 100 -105 100q-64 0 -98.5 -59t-34.5 -155q0 -228 155 -228q56 0 96 27v101h-76v83h213zM381 763q0 -27 -19.5 -46 t-46.5 -19q-25 0 -44 19.5t-19 45.5q0 27 19 45t46 18q26 0 45 -19t19 -44z" />
<glyph unicode="&#x121;" horiz-adv-x="551" d="M488 465v-447q0 -114 -46 -167q-54 -63 -179 -63q-107 0 -186 42l8 98q74 -45 159 -45q58 0 84 26q27 27 27 96v41q-41 -48 -121 -48q-96 0 -149 59t-53 165q0 127 76.5 199.5t204.5 72.5q95 0 175 -29zM355 191v208q-19 7 -45 7q-67 0 -105 -47t-38 -128 q0 -68 25.5 -104t73.5 -36q43 0 67 27q22 23 22 73zM357 610q0 -27 -19.5 -46t-46.5 -19q-25 0 -44 19.5t-19 45.5q0 27 19 45t46 18q26 0 45 -19t19 -44z" />
<glyph unicode="&#x122;" horiz-adv-x="630" d="M571 307v-307h-80l-22 36q-67 -46 -162 -46q-137 0 -204.5 88.5t-67.5 238.5q0 157 76.5 242t210.5 85q101 0 163.5 -48.5t79.5 -133.5l-144 -24q-24 100 -105 100q-64 0 -98.5 -59t-34.5 -155q0 -228 155 -228q56 0 96 27v101h-76v83h213zM381 -110q0 -41 -28.5 -86 t-71.5 -65l-25 31q20 16 36 39.5t20 39.5q-40 13 -40 53q0 22 13.5 37t37.5 15q27 0 42.5 -17.5t15.5 -46.5z" />
<glyph unicode="&#x123;" horiz-adv-x="551" d="M488 465v-447q0 -114 -46 -167q-54 -63 -179 -63q-107 0 -186 42l8 98q74 -45 159 -45q58 0 84 26q27 27 27 96v41q-41 -48 -121 -48q-96 0 -149 59t-53 165q0 127 76.5 199.5t204.5 72.5q95 0 175 -29zM355 191v208q-19 7 -45 7q-67 0 -105 -47t-38 -128 q0 -68 25.5 -104t73.5 -36q43 0 67 27q22 23 22 73zM227 601q0 41 28.5 86t71.5 65l25 -31q-20 -16 -36 -39.5t-20 -39.5q40 -13 40 -53q0 -22 -13.5 -37t-37.5 -15q-27 0 -42.5 17.5t-15.5 46.5z" />
<glyph unicode="&#x124;" horiz-adv-x="645" d="M574 633v-633h-139v262h-225v-262h-139v633h139v-261h225v261h139zM371 813l83 -108h-79l-53 70l-54 -70h-78l84 109q16 20 36 20h25q20 0 36 -21z" />
<glyph unicode="&#x125;" horiz-adv-x="562" d="M502 317v-317h-133v296q0 49 -16 71q-21 27 -63 27q-44 0 -68 -31q-20 -26 -20 -85v-278h-133v684h133v-235q47 45 125 45q88 0 133 -47q42 -45 42 -130zM184 830l83 -108h-79l-53 70l-54 -70h-78l84 109q16 20 36 20h25q20 0 36 -21z" />
<glyph unicode="&#x126;" horiz-adv-x="645" d="M71 452h-67v96h67v85h139v-85h225v85h139v-85h67v-96h-67v-452h-139v262h-225v-262h-139v452zM210 372h225v80h-225v-80z" />
<glyph unicode="&#x127;" horiz-adv-x="562" d="M502 317v-317h-133v296q0 49 -16 71q-21 27 -63 27q-44 0 -68 -31q-20 -26 -20 -85v-278h-133v534h-58v93h58v57h133v-57h122v-93h-122v-85q47 45 125 45q88 0 133 -47q42 -45 42 -130z" />
<glyph unicode="&#x128;" horiz-adv-x="383" d="M326 77v-77h-269v77h64v477h-64v79h269v-79h-66v-477h66zM272 812h41q-1 -49 -16.5 -76.5t-58.5 -27.5q-22 0 -53 18t-45 18q-10 0 -19 -9t-12 -27h-40q1 49 16.5 76.5t58.5 27.5q22 0 53 -18t45 -18q23 0 30 36z" />
<glyph unicode="&#x129;" d="M277 95l-4 -76q-37 -25 -88 -25q-60 0 -85 34q-18 25 -18 78v285h-58v94h191v-373q0 -30 24 -30q21 0 38 13zM227 657h41q-1 -49 -16.5 -76.5t-58.5 -27.5q-22 0 -53 18t-45 18q-9 0 -18.5 -9t-12.5 -27h-40q1 49 16.5 76.5t58.5 27.5q22 0 53 -18t45 -18q23 0 30 36z " />
<glyph unicode="&#x12a;" horiz-adv-x="383" d="M326 77v-77h-269v77h64v477h-64v79h269v-79h-66v-477h66zM308 782v-64h-234v64h234z" />
<glyph unicode="&#x12b;" d="M277 95l-4 -76q-37 -25 -88 -25q-60 0 -85 34q-18 25 -18 78v285h-58v94h191v-373q0 -30 24 -30q21 0 38 13zM256 632v-64h-234v64h234z" />
<glyph unicode="&#x12c;" horiz-adv-x="383" d="M326 77v-77h-269v77h64v477h-64v79h269v-79h-66v-477h66zM256 812h51q-1 -54 -32 -84t-84 -30t-83.5 30t-31.5 84h50q12 -57 65 -57t65 57z" />
<glyph unicode="&#x12d;" d="M277 95l-4 -76q-37 -25 -88 -25q-60 0 -85 34q-18 25 -18 78v285h-58v94h191v-373q0 -30 24 -30q21 0 38 13zM209 652h51q-1 -54 -32 -84t-84 -30t-83.5 30t-31.5 84h50q12 -57 65 -57t65 57z" />
<glyph unicode="&#x12e;" horiz-adv-x="383" d="M326 77v-77h-36q-34 0 -55.5 -20t-21.5 -52q0 -29 24.5 -49t65.5 -24l-11 -38q-68 2 -107.5 32t-39.5 77q0 43 36 74h-124v77h64v477h-64v79h269v-79h-66v-477h66z" />
<glyph unicode="&#x12f;" d="M100 28q-18 25 -18 78v285h-58v94h191v-373q0 -30 23 -30q22 0 39 13l-5 -76q-31 -14 -51.5 -38.5t-20.5 -52.5q0 -29 24.5 -49t65.5 -24l-11 -38q-68 2 -107.5 32t-39.5 77q0 39 28 70q-43 6 -60 32zM218 617q0 -31 -20.5 -52.5t-51.5 -21.5t-53 21.5t-22 52.5 t21.5 52.5t52.5 21.5t52 -21.5t21 -52.5z" />
<glyph unicode="&#x130;" horiz-adv-x="383" d="M326 77v-77h-269v77h64v477h-64v79h269v-79h-66v-477h66zM256 763q0 -27 -19.5 -46t-46.5 -19q-25 0 -44 19.5t-19 45.5q0 27 19 45t46 18q26 0 45 -19t19 -44z" />
<glyph unicode="&#x131;" d="M277 95l-4 -76q-37 -25 -88 -25q-60 0 -85 34q-18 25 -18 78v285h-58v94h191v-373q0 -30 24 -30q21 0 38 13z" />
<glyph unicode="&#x132;" horiz-adv-x="821" d="M326 77v-77h-269v77h64v477h-64v79h269v-79h-66v-477h66zM750 633v-431q0 -97 -27 -139q-47 -73 -171 -73q-76 0 -139 24l6 100q48 -22 104 -22q47 0 67 21q21 21 21 75v347h-162v98h301z" />
<glyph unicode="&#x133;" horiz-adv-x="597" d="M218 617q0 -31 -20.5 -52.5t-51.5 -21.5t-53 21.5t-22 52.5t21.5 52.5t52.5 21.5t52 -21.5t21 -52.5zM277 95l-4 -76q-37 -25 -88 -25q-60 0 -85 34q-18 25 -18 78v285h-58v94h191v-373q0 -30 24 -30q21 0 38 13zM535 617q0 -31 -20.5 -52.5t-51.5 -21.5t-53 21.5 t-22 52.5t21.5 52.5t52.5 21.5t52 -21.5t21 -52.5zM532 485v-493q0 -104 -31 -144q-41 -53 -138 -53q-58 0 -100 16l5 92q33 -14 71 -14q34 0 47 18.5t13 64.5v419h-61v94h194z" />
<glyph unicode="&#x134;" horiz-adv-x="454" d="M383 633v-431q0 -97 -27 -139q-47 -73 -171 -73q-76 0 -139 24l6 100q48 -22 104 -22q47 0 67 21q21 21 21 75v347h-162v98h301zM285 813l83 -108h-79l-53 70l-54 -70h-78l84 109q16 20 36 20h25q20 0 36 -21z" />
<glyph unicode="&#x135;" horiz-adv-x="299" d="M234 485v-493q0 -104 -31 -144q-41 -53 -138 -53q-58 0 -100 16l5 92q33 -14 71 -14q34 0 47 18.5t13 64.5v419h-61v94h194zM198 647l83 -108h-79l-53 70l-54 -70h-78l84 109q16 20 36 20h25q20 0 36 -21z" />
<glyph unicode="&#x136;" horiz-adv-x="616" d="M601 101l-8 -88q-32 -21 -85 -21q-44 0 -74 22t-59 75l-93 170h-72v-259h-139v633h139v-262h80l135 262h140l-164 -309l109 -198q21 -37 50 -37q25 0 41 12zM363 -110q0 -41 -28.5 -86t-71.5 -65l-25 31q20 16 36 39.5t20 39.5q-40 13 -40 53q0 22 13.5 37t37.5 15 q27 0 42.5 -17.5t15.5 -46.5z" />
<glyph unicode="&#x137;" horiz-adv-x="546" d="M537 95l-4 -79q-29 -22 -78 -22q-40 0 -66 16.5t-48 54.5l-90 151h-47v-216h-133v590h-58v94h191v-370h53l99 171h132l-126 -216l96 -159q17 -28 40 -28q21 0 39 13zM342 -110q0 -41 -28.5 -86t-71.5 -65l-25 31q20 16 36 39.5t20 39.5q-40 13 -40 53q0 22 13.5 37 t37.5 15q27 0 42.5 -17.5t15.5 -46.5z" />
<glyph unicode="&#x138;" horiz-adv-x="561" d="M552 95l-4 -79q-29 -22 -78 -22q-41 0 -65 16.5t-49 54.5l-90 138h-57v-203h-133v391h-58v94h191v-184h63l99 184h132l-126 -229l96 -146q18 -28 42 -28q19 0 37 13z" />
<glyph unicode="&#x139;" horiz-adv-x="504" d="M210 99h272l-8 -99h-403v633h139v-534zM246 779q0 -23 -18 -47q-25 5 -36 5q-58 0 -128 -55l-13 36q84 102 145 102q24 0 37 -11t13 -30z" />
<glyph unicode="&#x13a;" d="M267 95l-4 -76q-37 -25 -88 -25q-60 0 -85 34q-18 25 -18 78v484h-58v94h191v-572q0 -30 24 -30q21 0 38 13zM227 816q0 -23 -18 -47q-25 5 -36 5q-58 0 -128 -55l-13 36q84 102 145 102q24 0 37 -11t13 -30z" />
<glyph unicode="&#x13b;" horiz-adv-x="504" d="M210 99h272l-8 -99h-403v633h139v-534zM339 -110q0 -41 -28.5 -86t-71.5 -65l-25 31q20 16 36 39.5t20 39.5q-40 13 -40 53q0 22 13.5 37t37.5 15q27 0 42.5 -17.5t15.5 -46.5z" />
<glyph unicode="&#x13c;" d="M267 95l-4 -76q-37 -25 -88 -25q-60 0 -85 34q-18 25 -18 78v484h-58v94h191v-572q0 -30 24 -30q21 0 38 13zM220 -110q0 -41 -28.5 -86t-71.5 -65l-25 31q20 16 36 39.5t20 39.5q-40 13 -40 53q0 22 13.5 37t37.5 15q27 0 42.5 -17.5t15.5 -46.5z" />
<glyph unicode="&#x13d;" horiz-adv-x="504" d="M386 580q0 -41 -28.5 -86t-71.5 -65l-25 31q20 16 36 39.5t20 39.5q-40 13 -40 53q0 22 13.5 37t37.5 15q27 0 42.5 -17.5t15.5 -46.5zM210 99h272l-8 -99h-403v633h139v-534z" />
<glyph unicode="&#x13e;" horiz-adv-x="372" d="M364 620q0 -41 -28.5 -86t-71.5 -65l-25 31q20 16 36 39.5t20 39.5q-40 13 -40 53q0 22 13.5 37t37.5 15q27 0 42.5 -17.5t15.5 -46.5zM267 95l-4 -76q-37 -25 -88 -25q-60 0 -85 34q-18 25 -18 78v484h-58v94h191v-572q0 -30 24 -30q21 0 38 13z" />
<glyph unicode="&#x13f;" horiz-adv-x="504" d="M210 99h272l-8 -99h-403v633h139v-534zM377 374q0 -27 -19.5 -46t-46.5 -19q-25 0 -44 19.5t-19 45.5q0 27 19 45t46 18q26 0 45 -19t19 -44z" />
<glyph unicode="&#x140;" horiz-adv-x="390" d="M267 95l-4 -76q-37 -25 -88 -25q-60 0 -85 34q-18 25 -18 78v484h-58v94h191v-572q0 -30 24 -30q21 0 38 13zM376 386q0 -27 -19.5 -46t-46.5 -19q-25 0 -44 19.5t-19 45.5q0 27 19 45t46 18q26 0 45 -19t19 -44z" />
<glyph unicode="&#x141;" horiz-adv-x="509" d="M211 99h276l-8 -99h-408v251l-82 -30v107l82 30v275h140v-226l116 43v-105l-116 -44v-202z" />
<glyph unicode="&#x142;" d="M293 486v-108l-88 -35v-231q0 -30 24 -30q21 0 38 13l-4 -76q-37 -25 -88 -25q-60 0 -85 34q-18 25 -18 78v184l-87 -35v108l87 35v192h-58v94h191v-233z" />
<glyph unicode="&#x143;" horiz-adv-x="652" d="M581 633v-633h-92l-271 352q-23 30 -30 54v-406h-117v633h89l272 -352q25 -31 32 -54v406h117zM423 779q0 -23 -18 -47q-25 5 -36 5q-58 0 -128 -55l-13 36q84 102 145 102q24 0 37 -11t13 -30z" />
<glyph unicode="&#x144;" horiz-adv-x="569" d="M509 317v-317h-133v296q0 49 -16 71q-21 27 -63 27q-44 0 -68 -31q-20 -26 -20 -85v-278h-133v391h-58v94h137l24 -62q53 71 155 71q88 0 133 -47q42 -45 42 -130zM398 624q0 -23 -18 -47q-25 5 -36 5q-58 0 -128 -55l-13 36q84 102 145 102q24 0 37 -11t13 -30z" />
<glyph unicode="&#x145;" horiz-adv-x="652" d="M581 633v-633h-92l-271 352q-23 30 -30 54v-406h-117v633h89l272 -352q25 -31 32 -54v406h117zM384 -110q0 -41 -28.5 -86t-71.5 -65l-25 31q20 16 36 39.5t20 39.5q-40 13 -40 53q0 22 13.5 37t37.5 15q27 0 42.5 -17.5t15.5 -46.5z" />
<glyph unicode="&#x146;" horiz-adv-x="569" d="M509 317v-317h-133v296q0 49 -16 71q-21 27 -63 27q-44 0 -68 -31q-20 -26 -20 -85v-278h-133v391h-58v94h137l24 -62q53 71 155 71q88 0 133 -47q42 -45 42 -130zM350 -110q0 -41 -28.5 -86t-71.5 -65l-25 31q20 16 36 39.5t20 39.5q-40 13 -40 53q0 22 13.5 37t37.5 15 q27 0 42.5 -17.5t15.5 -46.5z" />
<glyph unicode="&#x147;" horiz-adv-x="652" d="M581 633v-633h-92l-271 352q-23 30 -30 54v-406h-117v633h89l272 -352q25 -31 32 -54v406h117zM374 825h78l-78 -103q-15 -20 -36 -20h-25q-19 0 -35 20l-80 103h77l50 -68z" />
<glyph unicode="&#x148;" horiz-adv-x="569" d="M509 317v-317h-133v296q0 49 -16 71q-21 27 -63 27q-44 0 -68 -31q-20 -26 -20 -85v-278h-133v391h-58v94h137l24 -62q53 71 155 71q88 0 133 -47q42 -45 42 -130zM344 668h78l-78 -103q-15 -20 -36 -20h-25q-19 0 -35 20l-80 103h77l50 -68z" />
<glyph unicode="&#x149;" horiz-adv-x="722" d="M662 317v-317h-133v296q0 49 -16 71q-21 27 -63 27q-44 0 -68 -31q-20 -26 -20 -85v-278h-133v391h-58v94h137l24 -62q53 71 155 71q88 0 133 -47q42 -45 42 -130zM139 565q0 -54 -35 -109.5t-89 -81.5l-35 39q28 20 48.5 49.5t24.5 52.5q-24 6 -39 23t-15 41 q0 27 18.5 46t48.5 19q34 0 53.5 -21.5t19.5 -57.5z" />
<glyph unicode="&#x14a;" horiz-adv-x="652" d="M464 22v11l-246 319q-23 30 -30 54v-406h-117v633h89l272 -352q25 -31 32 -54v406h117v-591q0 -104 -31 -144q-41 -53 -138 -53q-58 0 -100 16l5 92q33 -14 76 -14q36 0 53.5 19.5t17.5 63.5z" />
<glyph unicode="&#x14b;" horiz-adv-x="569" d="M509 317v-275q0 -104 -31 -144q-41 -53 -138 -53q-58 0 -100 16l5 92q33 -14 71 -14q34 0 47 18.5t13 64.5v274q0 49 -16 71q-21 27 -63 27q-44 0 -68 -31q-20 -26 -20 -85v-278h-133v391h-58v94h137l24 -62q53 71 155 71q88 0 133 -47q42 -45 42 -130z" />
<glyph unicode="&#x14c;" horiz-adv-x="626" d="M591 317q0 -151 -71 -239t-207 -88t-207 88t-71 239t71 239t207 88t207 -88t71 -239zM443 317q0 220 -130 220t-130 -220t130 -220t130 220zM429 782v-64h-234v64h234z" />
<glyph unicode="&#x14d;" horiz-adv-x="532" d="M502 242q0 -119 -61.5 -185t-174.5 -66t-174.5 66t-61.5 185t61.5 185.5t174.5 66.5t174.5 -66.5t61.5 -185.5zM367 242q0 161 -101 161t-101 -161q0 -160 101 -160t101 160zM383 632v-64h-234v64h234z" />
<glyph unicode="&#x14e;" horiz-adv-x="626" d="M591 317q0 -151 -71 -239t-207 -88t-207 88t-71 239t71 239t207 88t207 -88t71 -239zM443 317q0 220 -130 220t-130 -220t130 -220t130 220zM377 812h51q-1 -54 -32 -84t-84 -30t-83.5 30t-31.5 84h50q12 -57 65 -57t65 57z" />
<glyph unicode="&#x14f;" horiz-adv-x="532" d="M502 242q0 -119 -61.5 -185t-174.5 -66t-174.5 66t-61.5 185t61.5 185.5t174.5 66.5t174.5 -66.5t61.5 -185.5zM367 242q0 161 -101 161t-101 -161q0 -160 101 -160t101 160zM330 652h51q-1 -54 -32 -84t-84 -30t-83.5 30t-31.5 84h50q12 -57 65 -57t65 57z" />
<glyph unicode="&#x150;" horiz-adv-x="626" d="M591 317q0 -151 -71 -239t-207 -88t-207 88t-71 239t71 239t207 88t207 -88t71 -239zM443 317q0 220 -130 220t-130 -220t130 -220t130 220zM485 794q0 -24 -18 -40q-15 5 -30 5q-29 0 -51.5 -17.5t-53.5 -59.5l-20 25q54 128 122 128q51 0 51 -41zM317 794 q0 -24 -18 -40q-15 5 -30 5q-29 0 -51.5 -17.5t-53.5 -59.5l-19 25q54 128 121 128q51 0 51 -41z" />
<glyph unicode="&#x151;" horiz-adv-x="532" d="M502 242q0 -119 -61.5 -185t-174.5 -66t-174.5 66t-61.5 185t61.5 185.5t174.5 66.5t174.5 -66.5t61.5 -185.5zM367 242q0 161 -101 161t-101 -161q0 -160 101 -160t101 160zM437 634q0 -24 -18 -40q-15 5 -30 5q-29 0 -51.5 -17.5t-53.5 -59.5l-20 25q54 128 122 128 q51 0 51 -41zM269 634q0 -24 -18 -40q-15 5 -30 5q-29 0 -51.5 -17.5t-53.5 -59.5l-19 25q54 128 121 128q51 0 51 -41z" />
<glyph unicode="&#x152;" horiz-adv-x="905" d="M569 99h294l-9 -99h-330q-39 0 -102.5 -5t-99.5 -5q-136 0 -210 88t-74 239t74 239t210 88q29 0 89 -5.5t108 -5.5h321v-98h-271v-165h218v-96h-218v-175zM430 177v281q0 41 -25 60q-28 19 -83 19q-137 0 -137 -220t137 -220q68 0 91 23q17 17 17 57z" />
<glyph unicode="&#x153;" horiz-adv-x="853" d="M815 271q0 -40 -13 -56t-47 -16h-251q7 -58 41 -87t90 -29q88 0 159 49l-5 -91q-70 -50 -181 -50q-107 0 -172 62q-62 -62 -170 -62q-113 0 -174.5 66t-61.5 185t61.5 185.5t174.5 66.5q108 0 170 -62q62 62 160 62q99 0 159 -61t60 -162zM687 285q0 57 -24 88t-67 31 q-88 0 -94 -129h175q10 0 10 10zM367 242q0 161 -101 161t-101 -161q0 -160 101 -160t101 160z" />
<glyph unicode="&#x154;" horiz-adv-x="631" d="M605 104l-8 -91q-34 -21 -82 -21q-50 0 -78.5 20t-56.5 68l-86 145h-75v-225h-139v535h-61v98h278q127 0 189 -39q81 -52 81 -158q0 -150 -127 -193l72 -123q18 -31 46 -31q23 0 47 15zM423 427q0 55 -27 81q-30 27 -110 27h-67v-221h87q62 0 89.5 28t27.5 85zM390 779 q0 -23 -18 -47q-25 5 -36 5q-58 0 -128 -55l-13 36q84 102 145 102q24 0 37 -11t13 -30z" />
<glyph unicode="&#x155;" horiz-adv-x="365" d="M341 491v-105q-15 3 -39 3q-46 0 -69 -27q-24 -29 -24 -95v-267h-133v391h-58v94h139l24 -68q18 36 52.5 56.5t76.5 20.5q18 0 31 -3zM298 624q0 -23 -18 -47q-25 5 -36 5q-58 0 -128 -55l-13 36q84 102 145 102q24 0 37 -11t13 -30z" />
<glyph unicode="&#x156;" horiz-adv-x="631" d="M605 104l-8 -91q-34 -21 -82 -21q-50 0 -78.5 20t-56.5 68l-86 145h-75v-225h-139v535h-61v98h278q127 0 189 -39q81 -52 81 -158q0 -150 -127 -193l72 -123q18 -31 46 -31q23 0 47 15zM423 427q0 55 -27 81q-30 27 -110 27h-67v-221h87q62 0 89.5 28t27.5 85zM384 -110 q0 -41 -28.5 -86t-71.5 -65l-25 31q20 16 36 39.5t20 39.5q-40 13 -40 53q0 22 13.5 37t37.5 15q27 0 42.5 -17.5t15.5 -46.5z" />
<glyph unicode="&#x157;" horiz-adv-x="365" d="M341 491v-105q-15 3 -39 3q-46 0 -69 -27q-24 -29 -24 -95v-267h-133v391h-58v94h139l24 -68q18 36 52.5 56.5t76.5 20.5q18 0 31 -3zM201 -110q0 -41 -28.5 -86t-71.5 -65l-25 31q20 16 36 39.5t20 39.5q-40 13 -40 53q0 22 13.5 37t37.5 15q27 0 42.5 -17.5t15.5 -46.5 z" />
<glyph unicode="&#x158;" horiz-adv-x="631" d="M605 104l-8 -91q-34 -21 -82 -21q-50 0 -78.5 20t-56.5 68l-86 145h-75v-225h-139v535h-61v98h278q127 0 189 -39q81 -52 81 -158q0 -150 -127 -193l72 -123q18 -31 46 -31q23 0 47 15zM423 427q0 55 -27 81q-30 27 -110 27h-67v-221h87q62 0 89.5 28t27.5 85zM345 825 h78l-78 -103q-15 -20 -36 -20h-25q-19 0 -35 20l-80 103h77l50 -68z" />
<glyph unicode="&#x159;" horiz-adv-x="365" d="M341 491v-105q-15 3 -39 3q-46 0 -69 -27q-24 -29 -24 -95v-267h-133v391h-58v94h139l24 -68q18 36 52.5 56.5t76.5 20.5q18 0 31 -3zM236 668h78l-78 -103q-15 -20 -36 -20h-25q-19 0 -35 20l-80 103h77l50 -68z" />
<glyph unicode="&#x15a;" horiz-adv-x="545" d="M506 184q0 -97 -66.5 -145.5t-174.5 -48.5q-106 0 -199 40l6 115q40 -23 92.5 -37.5t94.5 -14.5q51 0 81.5 18.5t30.5 55.5q0 34 -32 55t-77.5 34t-91.5 31t-78 59t-32 106q0 88 63 140t177 52q80 0 161 -27l-5 -106q-81 31 -147 31q-56 0 -85.5 -19.5t-29.5 -53.5 q0 -28 23 -47.5t58 -28.5t75 -24.5t75 -33.5t58 -57t23 -94zM383 779q0 -23 -18 -47q-25 5 -36 5q-58 0 -128 -55l-13 36q84 102 145 102q24 0 37 -11t13 -30z" />
<glyph unicode="&#x15b;" horiz-adv-x="458" d="M424 144q0 -74 -54.5 -113.5t-141.5 -39.5q-102 0 -176 33l8 100q31 -18 76.5 -30t82.5 -12q82 0 82 48q0 23 -26 37t-63 23.5t-73.5 23t-62.5 45.5t-26 82q0 71 55 112t145 41q79 0 136 -21v-94q-61 25 -127 25q-38 0 -62 -13.5t-24 -36.5q0 -21 26 -34.5t62.5 -23.5 t73.5 -24t63 -46.5t26 -81.5zM337 624q0 -23 -18 -47q-25 5 -36 5q-58 0 -128 -55l-13 36q84 102 145 102q24 0 37 -11t13 -30z" />
<glyph unicode="&#x15c;" horiz-adv-x="545" d="M506 184q0 -97 -66.5 -145.5t-174.5 -48.5q-106 0 -199 40l6 115q40 -23 92.5 -37.5t94.5 -14.5q51 0 81.5 18.5t30.5 55.5q0 34 -32 55t-77.5 34t-91.5 31t-78 59t-32 106q0 88 63 140t177 52q80 0 161 -27l-5 -106q-81 31 -147 31q-56 0 -85.5 -19.5t-29.5 -53.5 q0 -28 23 -47.5t58 -28.5t75 -24.5t75 -33.5t58 -57t23 -94zM336 813l83 -108h-79l-53 70l-54 -70h-78l84 109q16 20 36 20h25q20 0 36 -21z" />
<glyph unicode="&#x15d;" horiz-adv-x="458" d="M424 144q0 -74 -54.5 -113.5t-141.5 -39.5q-102 0 -176 33l8 100q31 -18 76.5 -30t82.5 -12q82 0 82 48q0 23 -26 37t-63 23.5t-73.5 23t-62.5 45.5t-26 82q0 71 55 112t145 41q79 0 136 -21v-94q-61 25 -127 25q-38 0 -62 -13.5t-24 -36.5q0 -21 26 -34.5t62.5 -23.5 t73.5 -24t63 -46.5t26 -81.5zM284 647l83 -108h-79l-53 70l-54 -70h-78l84 109q16 20 36 20h25q20 0 36 -21z" />
<glyph unicode="&#x15e;" horiz-adv-x="545" d="M383 -99q0 -37 -32.5 -59.5t-94.5 -21.5l-13 40q76 3 76 27q0 11 -14.5 18.5t-31.5 12t-31.5 14t-14.5 22.5q0 14 11 37q-94 5 -172 39l6 115q40 -23 92.5 -37.5t94.5 -14.5q51 0 81.5 18.5t30.5 55.5q0 34 -32 55t-77.5 34t-91.5 31t-78 59t-32 106q0 88 63 140t177 52 q80 0 161 -27l-5 -106q-81 31 -147 31q-56 0 -85.5 -19.5t-29.5 -53.5q0 -28 23 -47.5t58 -28.5t75 -24.5t75 -33.5t58 -57t23 -94q0 -92 -60 -140t-159 -53q-1 -4 -1 -10q0 -8 15 -15.5t33.5 -12.5t33.5 -18.5t15 -33.5z" />
<glyph unicode="&#x15f;" horiz-adv-x="458" d="M339 -99q0 -37 -32.5 -59.5t-94.5 -21.5l-13 40q76 3 76 27q0 11 -14.5 18.5t-31.5 12t-31.5 14t-14.5 22.5q0 15 11 38q-86 7 -142 32l8 100q31 -18 76.5 -30t82.5 -12q82 0 82 48q0 23 -26 37t-63 23.5t-73.5 23t-62.5 45.5t-26 82q0 71 55 112t145 41q79 0 136 -21 v-94q-61 25 -127 25q-38 0 -62 -13.5t-24 -36.5q0 -21 26 -34.5t62.5 -23.5t73.5 -24t63 -46.5t26 -81.5q0 -70 -50 -109.5t-131 -42.5q-1 -4 -1 -11q0 -8 15 -15.5t33.5 -12.5t33.5 -18.5t15 -33.5z" />
<glyph unicode="&#x160;" horiz-adv-x="545" d="M506 184q0 -97 -66.5 -145.5t-174.5 -48.5q-106 0 -199 40l6 115q40 -23 92.5 -37.5t94.5 -14.5q51 0 81.5 18.5t30.5 55.5q0 34 -32 55t-77.5 34t-91.5 31t-78 59t-32 106q0 88 63 140t177 52q80 0 161 -27l-5 -106q-81 31 -147 31q-56 0 -85.5 -19.5t-29.5 -53.5 q0 -28 23 -47.5t58 -28.5t75 -24.5t75 -33.5t58 -57t23 -94zM330 825h78l-78 -103q-15 -20 -36 -20h-25q-19 0 -35 20l-80 103h77l50 -68z" />
<glyph unicode="&#x161;" horiz-adv-x="458" d="M424 144q0 -74 -54.5 -113.5t-141.5 -39.5q-102 0 -176 33l8 100q31 -18 76.5 -30t82.5 -12q82 0 82 48q0 23 -26 37t-63 23.5t-73.5 23t-62.5 45.5t-26 82q0 71 55 112t145 41q79 0 136 -21v-94q-61 25 -127 25q-38 0 -62 -13.5t-24 -36.5q0 -21 26 -34.5t62.5 -23.5 t73.5 -24t63 -46.5t26 -81.5zM287 668h78l-78 -103q-15 -20 -36 -20h-25q-19 0 -35 20l-80 103h77l50 -68z" />
<glyph unicode="&#x162;" horiz-adv-x="541" d="M521 633v-98h-181v-535h-139v535h-181v98h501zM327 -110q0 -41 -28.5 -86t-71.5 -65l-25 31q20 16 36 39.5t20 39.5q-40 13 -40 53q0 22 13.5 37t37.5 15q27 0 42.5 -17.5t15.5 -46.5z" />
<glyph unicode="&#x163;" horiz-adv-x="387" d="M357 112l-3 -89q-47 -32 -121 -32q-73 0 -110 39q-34 37 -34 125v236h-76v94h76v120l133 33v-153h112v-94h-112v-234q0 -36 11.5 -53.5t41.5 -17.5q39 0 82 26zM277 -108q0 -41 -28.5 -86t-71.5 -65l-25 31q20 16 36 39.5t20 39.5q-40 13 -40 53q0 22 13.5 37t37.5 15 q27 0 42.5 -17.5t15.5 -46.5z" />
<glyph unicode="&#x164;" horiz-adv-x="541" d="M521 633v-98h-181v-535h-139v535h-181v98h501zM320 825h78l-78 -103q-15 -20 -36 -20h-25q-19 0 -35 20l-80 103h77l50 -68z" />
<glyph unicode="&#x165;" horiz-adv-x="387" d="M397 691q0 -41 -28.5 -86t-71.5 -65l-25 31q20 16 36 39.5t20 39.5q-40 13 -40 53q0 22 13.5 37t37.5 15q27 0 42.5 -17.5t15.5 -46.5zM357 112l-3 -89q-47 -32 -121 -32q-73 0 -110 39q-34 37 -34 125v236h-76v94h76v120l133 33v-153h112v-94h-112v-234 q0 -36 11.5 -53.5t41.5 -17.5q39 0 82 26z" />
<glyph unicode="&#x166;" horiz-adv-x="541" d="M340 374h129v-96h-129v-278h-139v278h-129v96h129v161h-181v98h501v-98h-181v-161z" />
<glyph unicode="&#x167;" horiz-adv-x="387" d="M89 208h-57v93h57v90h-76v94h76v120l133 33v-153h112v-94h-112v-90h83v-93h-83v-51q0 -36 11.5 -53.5t41.5 -17.5q39 0 82 26l-3 -89q-47 -32 -121 -32q-73 0 -110 39q-34 37 -34 125v53z" />
<glyph unicode="&#x168;" horiz-adv-x="635" d="M565 633v-399q0 -109 -45 -166q-61 -78 -204 -78q-134 0 -195 67q-51 56 -51 172v404h140v-398q0 -72 23 -102q27 -35 86 -35q57 0 85 33q25 31 25 103v399h136zM402 812h41q-1 -49 -16.5 -76.5t-58.5 -27.5q-22 0 -53 18t-45 18q-10 0 -19 -9t-12 -27h-40 q1 49 16.5 76.5t58.5 27.5q22 0 53 -18t45 -18q23 0 30 36z" />
<glyph unicode="&#x169;" horiz-adv-x="574" d="M555 95l-5 -75q-38 -26 -89 -26q-67 0 -86 50q-51 -53 -140 -53q-88 0 -133 47q-42 45 -42 130v317h133v-296q0 -49 16 -71q21 -27 63 -27q44 0 68 31q20 26 20 85v278h133v-373q0 -30 24 -30q21 0 38 13zM356 657h41q-1 -49 -16.5 -76.5t-58.5 -27.5q-22 0 -53 18 t-45 18q-10 0 -19 -9t-12 -27h-40q1 49 16.5 76.5t58.5 27.5q22 0 53 -18t45 -18q23 0 30 36z" />
<glyph unicode="&#x16a;" horiz-adv-x="635" d="M565 633v-399q0 -109 -45 -166q-61 -78 -204 -78q-134 0 -195 67q-51 56 -51 172v404h140v-398q0 -72 23 -102q27 -35 86 -35q57 0 85 33q25 31 25 103v399h136zM436 782v-64h-234v64h234z" />
<glyph unicode="&#x16b;" horiz-adv-x="574" d="M555 95l-5 -75q-38 -26 -89 -26q-67 0 -86 50q-51 -53 -140 -53q-88 0 -133 47q-42 45 -42 130v317h133v-296q0 -49 16 -71q21 -27 63 -27q44 0 68 31q20 26 20 85v278h133v-373q0 -30 24 -30q21 0 38 13zM393 632v-64h-234v64h234z" />
<glyph unicode="&#x16c;" horiz-adv-x="635" d="M565 633v-399q0 -109 -45 -166q-61 -78 -204 -78q-134 0 -195 67q-51 56 -51 172v404h140v-398q0 -72 23 -102q27 -35 86 -35q57 0 85 33q25 31 25 103v399h136zM383 812h51q-1 -54 -32 -84t-84 -30t-83.5 30t-31.5 84h50q12 -57 65 -57t65 57z" />
<glyph unicode="&#x16d;" horiz-adv-x="574" d="M555 95l-5 -75q-38 -26 -89 -26q-67 0 -86 50q-51 -53 -140 -53q-88 0 -133 47q-42 45 -42 130v317h133v-296q0 -49 16 -71q21 -27 63 -27q44 0 68 31q20 26 20 85v278h133v-373q0 -30 24 -30q21 0 38 13zM341 652h51q-1 -54 -32 -84t-84 -30t-83.5 30t-31.5 84h50 q12 -57 65 -57t65 57z" />
<glyph unicode="&#x16e;" horiz-adv-x="635" d="M565 633v-399q0 -109 -45 -166q-61 -78 -204 -78q-134 0 -195 67q-51 56 -51 172v404h140v-398q0 -72 23 -102q27 -35 86 -35q57 0 85 33q25 31 25 103v399h136zM407 773q0 -38 -26 -62t-62 -24t-62 24t-26 62t26 62t62 24t62 -24t26 -62zM355 773q0 17 -10 28t-26 11 t-26 -11t-10 -28t10 -28t26 -11t26 11t10 28z" />
<glyph unicode="&#x16f;" horiz-adv-x="574" d="M555 95l-5 -75q-38 -26 -89 -26q-67 0 -86 50q-51 -53 -140 -53q-88 0 -133 47q-42 45 -42 130v317h133v-296q0 -49 16 -71q21 -27 63 -27q44 0 68 31q20 26 20 85v278h133v-373q0 -30 24 -30q21 0 38 13zM364 623q0 -38 -26 -62t-62 -24t-62 24t-26 62t26 62t62 24 t62 -24t26 -62zM312 623q0 17 -10 28t-26 11t-26 -11t-10 -28t10 -28t26 -11t26 11t10 28z" />
<glyph unicode="&#x170;" horiz-adv-x="635" d="M565 633v-399q0 -109 -45 -166q-61 -78 -204 -78q-134 0 -195 67q-51 56 -51 172v404h140v-398q0 -72 23 -102q27 -35 86 -35q57 0 85 33q25 31 25 103v399h136zM493 794q0 -24 -18 -40q-15 5 -30 5q-29 0 -51.5 -17.5t-53.5 -59.5l-20 25q54 128 122 128q51 0 51 -41z M325 794q0 -24 -18 -40q-15 5 -30 5q-29 0 -51.5 -17.5t-53.5 -59.5l-19 25q54 128 121 128q51 0 51 -41z" />
<glyph unicode="&#x171;" horiz-adv-x="574" d="M555 95l-5 -75q-38 -26 -89 -26q-67 0 -86 50q-51 -53 -140 -53q-88 0 -133 47q-42 45 -42 130v317h133v-296q0 -49 16 -71q21 -27 63 -27q44 0 68 31q20 26 20 85v278h133v-373q0 -30 24 -30q21 0 38 13zM453 634q0 -24 -18 -40q-15 5 -30 5q-29 0 -51.5 -17.5 t-53.5 -59.5l-20 25q54 128 122 128q51 0 51 -41zM285 634q0 -24 -18 -40q-15 5 -30 5q-29 0 -51.5 -17.5t-53.5 -59.5l-19 25q54 128 121 128q51 0 51 -41z" />
<glyph unicode="&#x172;" horiz-adv-x="635" d="M565 633v-399q0 -109 -45 -166q-28 -36 -73 -55q-64 -30 -64 -85q0 -29 24.5 -49t65.5 -24l-11 -38q-68 2 -107.5 32t-39.5 77q0 36 24 65q-6 -1 -23 -1q-134 0 -195 67q-51 56 -51 172v404h140v-398q0 -72 23 -102q27 -35 86 -35q57 0 85 33q25 31 25 103v399h136z" />
<glyph unicode="&#x173;" horiz-adv-x="574" d="M235 -9q-88 0 -133 47q-42 45 -42 130v317h133v-296q0 -49 16 -71q21 -27 63 -27q44 0 68 31q20 26 20 85v278h133v-373q0 -30 23 -30q22 0 39 13l-5 -76q-31 -14 -51.5 -38.5t-20.5 -52.5q0 -29 24.5 -49t65.5 -24l-11 -38q-68 2 -107.5 32t-39.5 77q0 39 29 70 q-51 7 -64 48q-51 -53 -140 -53z" />
<glyph unicode="&#x174;" horiz-adv-x="855" d="M714 633h132l-190 -633h-127l-95 321l-100 -321h-124l-200 633h139l120 -396q14 -49 14 -73h1q2 32 13 71l84 264l-40 134h131l113 -394q12 -42 12 -75h2q1 32 12 76zM476 812l83 -108h-79l-53 70l-54 -70h-78l84 109q16 20 36 20h25q20 0 36 -21z" />
<glyph unicode="&#x175;" horiz-adv-x="699" d="M582 485h112l-160 -485h-104l-77 240l-79 -240h-101l-168 485h131l82 -255q17 -51 19 -83q3 37 19 84l51 154l-32 100h121l75 -253q16 -55 17 -87q2 34 18 87zM399 647l83 -108h-79l-53 70l-54 -70h-78l84 109q16 20 36 20h25q20 0 36 -21z" />
<glyph unicode="&#x176;" horiz-adv-x="587" d="M445 633h136l-220 -415v-218h-139v220l-219 413h155l121 -237q23 -45 25 -70h1q3 27 23 68zM353 813l83 -108h-79l-53 70l-54 -70h-78l84 109q16 20 36 20h25q20 0 36 -21z" />
<glyph unicode="&#x177;" horiz-adv-x="557" d="M493 485v-467q0 -114 -46 -167q-54 -63 -179 -63q-107 0 -186 42l8 98q74 -45 159 -45q58 0 84 26q27 27 27 96v27q-53 -41 -125 -41q-88 0 -133 47q-42 45 -42 130v317h133v-296q0 -49 16 -71q21 -27 63 -27q44 0 68 31q20 26 20 85v278h133zM327 647l83 -108h-79 l-53 70l-54 -70h-78l84 109q16 20 36 20h25q20 0 36 -21z" />
<glyph unicode="&#x178;" horiz-adv-x="587" d="M445 633h136l-220 -415v-218h-139v220l-219 413h155l121 -237q23 -45 25 -70h1q3 27 23 68zM442 756q0 -25 -17 -41.5t-42 -16.5t-41.5 16.5t-16.5 41.5t16.5 42t41.5 17t42 -17t17 -42zM272 756q0 -25 -16.5 -41.5t-41.5 -16.5t-42 16.5t-17 41.5t17 42t42 17t41.5 -17 t16.5 -42z" />
<glyph unicode="&#x179;" horiz-adv-x="540" d="M218 99h290l-9 -99h-448v77l276 458h-265v98h432v-77zM372 779q0 -23 -18 -47q-25 5 -36 5q-58 0 -128 -55l-13 36q84 102 145 102q24 0 37 -11t13 -30z" />
<glyph unicode="&#x17a;" horiz-adv-x="454" d="M193 94h232l-7 -94h-375v72l217 319h-212v94h361v-73zM324 624q0 -23 -18 -47q-25 5 -36 5q-58 0 -128 -55l-13 36q84 102 145 102q24 0 37 -11t13 -30z" />
<glyph unicode="&#x17b;" horiz-adv-x="540" d="M218 99h290l-9 -99h-448v77l276 458h-265v98h432v-77zM345 763q0 -27 -19.5 -46t-46.5 -19q-25 0 -44 19.5t-19 45.5q0 27 19 45t46 18q26 0 45 -19t19 -44z" />
<glyph unicode="&#x17c;" horiz-adv-x="454" d="M193 94h232l-7 -94h-375v72l217 319h-212v94h361v-73zM295 610q0 -27 -19.5 -46t-46.5 -19q-25 0 -44 19.5t-19 45.5q0 27 19 45t46 18q26 0 45 -19t19 -44z" />
<glyph unicode="&#x17d;" horiz-adv-x="540" d="M218 99h290l-9 -99h-448v77l276 458h-265v98h432v-77zM323 825h78l-78 -103q-15 -20 -36 -20h-25q-19 0 -35 20l-80 103h77l50 -68z" />
<glyph unicode="&#x17e;" horiz-adv-x="454" d="M193 94h232l-7 -94h-375v72l217 319h-212v94h361v-73zM275 668h78l-78 -103q-15 -20 -36 -20h-25q-19 0 -35 20l-80 103h77l50 -68z" />
<glyph unicode="&#x17f;" horiz-adv-x="329" d="M218 534v-534h-133v391h-76v94h76v44q0 84 36 123q41 44 130 44q58 0 108 -18v-87q-39 14 -81 14q-34 0 -47 -18q-13 -16 -13 -53z" />
<glyph unicode="&#x192;" horiz-adv-x="517" d="M517 628l-4 -87q-33 13 -78 13q-39 0 -56 -22.5t-23 -71.5l-17 -144h103v-94h-115l-32 -260q-12 -97 -52 -139q-46 -49 -142 -49q-50 0 -99 19l4 87q44 -17 78 -17q38 0 56 22q17 21 23 73l32 264h-95v94h107l17 140q12 97 51 139q46 49 143 49q58 0 99 -16z" />
<glyph unicode="&#x1fa;" horiz-adv-x="620" d="M383 633l228 -633h-144l-43 128h-228l-39 -128h-137l175 535h-59v98h247zM224 222h168l-69 206q-16 47 -19 78h-1q-1 -28 -16 -77zM385 773q0 -38 -26 -62t-62 -24t-62 24t-26 62t26 62t62 24t62 -24t26 -62zM333 773q0 17 -10 28t-26 11t-26 -11t-10 -28t10 -28t26 -11 t26 11t10 28zM381 972q0 -23 -18 -47q-25 5 -36 5q-58 0 -128 -55l-13 36q84 102 145 102q24 0 37 -11t13 -30z" />
<glyph unicode="&#x1fb;" horiz-adv-x="542" d="M525 95l-5 -76q-36 -25 -89 -25q-69 0 -86 51q-41 -54 -131 -54q-79 0 -125.5 42t-46.5 119q0 79 51 121.5t139 42.5q54 0 98 -16v13q0 47 -19 69q-23 26 -81 26q-74 0 -145 -36v90q70 32 166 32q115 0 169 -51q43 -40 43 -124v-207q0 -30 23 -30q22 0 39 13zM330 161v67 q-30 12 -69 12q-42 0 -63.5 -22.5t-21.5 -59.5q0 -39 20.5 -60t55.5 -21q37 0 58 23q20 22 20 61zM352 623q0 -38 -26 -62t-62 -24t-62 24t-26 62t26 62t62 24t62 -24t26 -62zM300 623q0 17 -10 28t-26 11t-26 -11t-10 -28t10 -28t26 -11t26 11t10 28zM356 824 q0 -23 -18 -47q-25 5 -36 5q-58 0 -128 -55l-13 36q84 102 145 102q24 0 37 -11t13 -30z" />
<glyph unicode="&#x1fc;" horiz-adv-x="904" d="M568 99h294l-9 -99h-424v128h-213l-70 -128h-144l300 535h-63v98h600v-98h-271v-165h218v-96h-218v-175zM265 222h164v314q-6 -26 -36 -81zM649 779q0 -23 -18 -47q-25 5 -36 5q-58 0 -128 -55l-13 36q84 102 145 102q24 0 37 -11t13 -30z" />
<glyph unicode="&#x1fd;" horiz-adv-x="815" d="M778 271q0 -40 -13 -56t-47 -16h-251q7 -58 41 -87t90 -29q88 0 159 49l-5 -91q-70 -50 -181 -50q-120 0 -182 71q-25 -32 -72 -51.5t-102 -19.5q-79 0 -125.5 42t-46.5 119q0 79 51 121.5t139 42.5q54 0 98 -16v13q0 47 -19 69q-23 26 -81 26q-74 0 -145 -36v90 q70 32 166 32q108 0 164 -48q61 48 143 48q99 0 159 -61t60 -162zM650 285q0 57 -24 88t-67 31q-88 0 -94 -129h175q10 0 10 10zM331 161v67q-31 12 -69 12q-42 0 -63.5 -22.5t-21.5 -59.5q0 -39 20.5 -60t55.5 -21q37 0 58 23q20 22 20 61zM537 624q0 -23 -18 -47 q-25 5 -36 5q-58 0 -128 -55l-13 36q84 102 145 102q24 0 37 -11t13 -30z" />
<glyph unicode="&#x1fe;" horiz-adv-x="626" d="M591 317q0 -151 -71 -239t-207 -88q-55 0 -100 15l-34 -74h-79l49 106q-114 83 -114 280q0 151 71 239t207 88q58 0 106 -17l35 75h78l-50 -109q109 -82 109 -276zM443 317q0 88 -22 143l-161 -351q24 -12 53 -12q130 0 130 220zM208 167l163 355q-25 15 -58 15 q-130 0 -130 -220q0 -95 25 -150zM400 779q0 -23 -18 -47q-25 5 -36 5q-58 0 -128 -55l-13 36q84 102 145 102q24 0 37 -11t13 -30z" />
<glyph unicode="&#x1ff;" horiz-adv-x="534" d="M504 243q0 -119 -62 -185.5t-175 -66.5q-39 0 -77 10l-32 -70h-67l42 93q-103 63 -103 219q0 118 62 184.5t175 66.5q41 0 76 -9l29 64h67l-40 -87q105 -62 105 -219zM368 243q0 69 -19 109l-119 -263q16 -6 37 -6q101 0 101 160zM184 136l119 260q-17 6 -36 6 q-101 0 -101 -159q0 -69 18 -107zM343 624q0 -23 -18 -47q-25 5 -36 5q-58 0 -128 -55l-13 36q84 102 145 102q24 0 37 -11t13 -30z" />
<glyph unicode="&#x218;" horiz-adv-x="545" d="M506 184q0 -97 -66.5 -145.5t-174.5 -48.5q-106 0 -199 40l6 115q40 -23 92.5 -37.5t94.5 -14.5q51 0 81.5 18.5t30.5 55.5q0 34 -32 55t-77.5 34t-91.5 31t-78 59t-32 106q0 88 63 140t177 52q80 0 161 -27l-5 -106q-81 31 -147 31q-56 0 -85.5 -19.5t-29.5 -53.5 q0 -28 23 -47.5t58 -28.5t75 -24.5t75 -33.5t58 -57t23 -94zM337 -110q0 -41 -28.5 -86t-71.5 -65l-25 31q20 16 36 39.5t20 39.5q-40 13 -40 53q0 22 13.5 37t37.5 15q27 0 42.5 -17.5t15.5 -46.5z" />
<glyph unicode="&#x219;" horiz-adv-x="458" d="M424 144q0 -74 -54.5 -113.5t-141.5 -39.5q-102 0 -176 33l8 100q31 -18 76.5 -30t82.5 -12q82 0 82 48q0 23 -26 37t-63 23.5t-73.5 23t-62.5 45.5t-26 82q0 71 55 112t145 41q79 0 136 -21v-94q-61 25 -127 25q-38 0 -62 -13.5t-24 -36.5q0 -21 26 -34.5t62.5 -23.5 t73.5 -24t63 -46.5t26 -81.5zM292 -108q0 -41 -28.5 -86t-71.5 -65l-25 31q20 16 36 39.5t20 39.5q-40 13 -40 53q0 22 13.5 37t37.5 15q27 0 42.5 -17.5t15.5 -46.5z" />
<glyph unicode="&#x21a;" horiz-adv-x="541" d="M521 633v-98h-181v-535h-139v535h-181v98h501zM327 -110q0 -41 -28.5 -86t-71.5 -65l-25 31q20 16 36 39.5t20 39.5q-40 13 -40 53q0 22 13.5 37t37.5 15q27 0 42.5 -17.5t15.5 -46.5z" />
<glyph unicode="&#x21b;" horiz-adv-x="387" d="M357 112l-3 -89q-47 -32 -121 -32q-73 0 -110 39q-34 37 -34 125v236h-76v94h76v120l133 33v-153h112v-94h-112v-234q0 -36 11.5 -53.5t41.5 -17.5q39 0 82 26zM277 -108q0 -41 -28.5 -86t-71.5 -65l-25 31q20 16 36 39.5t20 39.5q-40 13 -40 53q0 22 13.5 37t37.5 15 q27 0 42.5 -17.5t15.5 -46.5z" />
<glyph unicode="&#x2c6;" d="M203 647l83 -108h-79l-53 70l-54 -70h-78l84 109q16 20 36 20h25q20 0 36 -21z" />
<glyph unicode="&#x2c7;" d="M203 668h78l-78 -103q-15 -20 -36 -20h-25q-19 0 -35 20l-80 103h77l50 -68z" />
<glyph unicode="&#x2d8;" d="M219 656h51q-1 -54 -32 -84t-84 -30t-83.5 30t-31.5 84h50q12 -57 65 -57t65 57z" />
<glyph unicode="&#x2d9;" d="M218 613q0 -27 -19.5 -46t-46.5 -19q-25 0 -44 19.5t-19 45.5q0 27 19 45t46 18q26 0 45 -19t19 -44z" />
<glyph unicode="&#x2da;" d="M242 623q0 -38 -26 -62t-62 -24t-62 24t-26 62t26 62t62 24t62 -24t26 -62zM190 623q0 17 -10 28t-26 11t-26 -11t-10 -28t10 -28t26 -11t26 11t10 28z" />
<glyph unicode="&#x2db;" d="M231 -145l-11 -38q-68 2 -107.5 32t-39.5 77q0 39 28.5 68.5t79.5 42.5l41 -17q-36 -11 -58.5 -36.5t-22.5 -55.5q0 -29 24.5 -49t65.5 -24z" />
<glyph unicode="&#x2dc;" d="M235 657h41q-1 -49 -16.5 -76.5t-58.5 -27.5q-22 0 -53 18t-45 18q-9 0 -18.5 -9t-12.5 -27h-40q1 49 16.5 76.5t58.5 27.5q22 0 53 -18t45 -18q23 0 30 36z" />
<glyph unicode="&#x2dd;" d="M324 624q0 -24 -18 -40q-15 5 -30 5q-29 0 -51.5 -17.5t-53.5 -59.5l-20 25q54 128 122 128q51 0 51 -41zM156 624q0 -24 -18 -40q-15 5 -30 5q-29 0 -51.5 -17.5t-53.5 -59.5l-19 25q54 128 121 128q51 0 51 -41z" />
<glyph unicode="&#x326;" d="M201 -110q0 -41 -28.5 -86t-71.5 -65l-25 31q20 16 36 39.5t20 39.5q-40 13 -40 53q0 22 13.5 37t37.5 15q27 0 42.5 -17.5t15.5 -46.5z" />
<glyph unicode="&#x394;" horiz-adv-x="617" d="M578 68v-68h-539v68l227 565h85zM138 77h338l-169 427z" />
<glyph unicode="&#x3a9;" horiz-adv-x="693" d="M625 341q0 -91 -39.5 -159t-95.5 -96h117v-86h-238v63q117 79 117 252q0 101 -36 160t-103 59q-69 0 -104.5 -58.5t-35.5 -160.5q0 -173 117 -252v-63h-238v86h117q-56 28 -95.5 96t-39.5 159q0 142 79 222.5t200 80.5q122 0 200 -79t78 -224z" />
<glyph unicode="&#x3bc;" horiz-adv-x="583" d="M564 95l-5 -75q-38 -26 -89 -26q-67 0 -86 50q-51 -53 -140 -53q-22 0 -42 3v-203h-133v694h133v-296q0 -49 16 -71q21 -27 63 -27q44 0 68 31q20 26 20 85v278h133v-373q0 -30 24 -30q21 0 38 13z" />
<glyph unicode="&#x3c0;" horiz-adv-x="677" d="M615 485v-94h-99v-391h-103v391h-149v-391h-103v391h-99v94h553z" />
<glyph unicode="&#x1e80;" horiz-adv-x="855" d="M714 633h132l-190 -633h-127l-95 321l-100 -321h-124l-200 633h139l120 -396q14 -49 14 -73h1q2 32 13 71l84 264l-40 134h131l113 -394q12 -42 12 -75h2q1 32 12 76zM523 718l-12 -36q-70 55 -128 55q-12 0 -37 -5q-18 24 -18 47q0 19 13 30t37 11q61 0 145 -102z" />
<glyph unicode="&#x1e81;" horiz-adv-x="699" d="M582 485h112l-160 -485h-104l-77 240l-79 -240h-101l-168 485h131l82 -255q17 -51 19 -83q3 37 19 84l51 154l-32 100h121l75 -253q16 -55 17 -87q2 34 18 87zM435 563l-12 -36q-70 55 -128 55q-12 0 -37 -5q-18 24 -18 47q0 19 13 30t37 11q61 0 145 -102z" />
<glyph unicode="&#x1e82;" horiz-adv-x="855" d="M714 633h132l-190 -633h-127l-95 321l-100 -321h-124l-200 633h139l120 -396q14 -49 14 -73h1q2 32 13 71l84 264l-40 134h131l113 -394q12 -42 12 -75h2q1 32 12 76zM516 779q0 -23 -18 -47q-25 5 -36 5q-58 0 -128 -55l-13 36q84 102 145 102q24 0 37 -11t13 -30z" />
<glyph unicode="&#x1e83;" horiz-adv-x="699" d="M582 485h112l-160 -485h-104l-77 240l-79 -240h-101l-168 485h131l82 -255q17 -51 19 -83q3 37 19 84l51 154l-32 100h121l75 -253q16 -55 17 -87q2 34 18 87zM443 624q0 -23 -18 -47q-25 5 -36 5q-58 0 -128 -55l-13 36q84 102 145 102q24 0 37 -11t13 -30z" />
<glyph unicode="&#x1e84;" horiz-adv-x="855" d="M714 633h132l-190 -633h-127l-95 321l-100 -321h-124l-200 633h139l120 -396q14 -49 14 -73h1q2 32 13 71l84 264l-40 134h131l113 -394q12 -42 12 -75h2q1 32 12 76zM559 756q0 -25 -17 -41.5t-42 -16.5t-41.5 16.5t-16.5 41.5t16.5 42t41.5 17t42 -17t17 -42zM389 756 q0 -25 -16.5 -41.5t-41.5 -16.5t-42 16.5t-17 41.5t17 42t42 17t41.5 -17t16.5 -42z" />
<glyph unicode="&#x1e85;" horiz-adv-x="699" d="M582 485h112l-160 -485h-104l-77 240l-79 -240h-101l-168 485h131l82 -255q17 -51 19 -83q3 37 19 84l51 154l-32 100h121l75 -253q16 -55 17 -87q2 34 18 87zM499 612q0 -25 -17 -41.5t-42 -16.5t-41.5 16.5t-16.5 41.5t16.5 42t41.5 17t42 -17t17 -42zM329 612 q0 -25 -16.5 -41.5t-41.5 -16.5t-42 16.5t-17 41.5t17 42t42 17t41.5 -17t16.5 -42z" />
<glyph unicode="&#x1ef2;" horiz-adv-x="587" d="M445 633h136l-220 -415v-218h-139v220l-219 413h155l121 -237q23 -45 25 -70h1q3 27 23 68zM386 718l-12 -36q-70 55 -128 55q-12 0 -37 -5q-18 24 -18 47q0 19 13 30t37 11q61 0 145 -102z" />
<glyph unicode="&#x1ef3;" horiz-adv-x="557" d="M493 485v-467q0 -114 -46 -167q-54 -63 -179 -63q-107 0 -186 42l8 98q74 -45 159 -45q58 0 84 26q27 27 27 96v27q-53 -41 -125 -41q-88 0 -133 47q-42 45 -42 130v317h133v-296q0 -49 16 -71q21 -27 63 -27q44 0 68 31q20 26 20 85v278h133zM368 563l-12 -36 q-70 55 -128 55q-12 0 -37 -5q-18 24 -18 47q0 19 13 30t37 11q61 0 145 -102z" />
<glyph unicode="&#x2013;" horiz-adv-x="500" d="M500 299v-76h-500v76h500z" />
<glyph unicode="&#x2014;" horiz-adv-x="1000" d="M1000 299v-76h-1000v76h1000z" />
<glyph unicode="&#x2018;" horiz-adv-x="238" d="M169 644l35 -39q-28 -20 -48.5 -49.5t-24.5 -52.5q24 -6 39 -23t15 -41q0 -27 -18.5 -46t-48.5 -19q-34 0 -53.5 21.5t-19.5 57.5q0 53 35 108.5t89 82.5z" />
<glyph unicode="&#x2019;" horiz-adv-x="238" d="M193 565q0 -54 -35 -109.5t-89 -81.5l-35 39q28 20 48.5 49.5t24.5 52.5q-24 6 -39 23t-15 41q0 27 18.5 46t48.5 19q34 0 53.5 -21.5t19.5 -57.5z" />
<glyph unicode="&#x201a;" horiz-adv-x="238" d="M193 21q0 -54 -35 -109.5t-89 -81.5l-35 39q28 20 48.5 49.5t24.5 52.5q-24 6 -39 23t-15 41q0 27 18.5 46t48.5 19q34 0 53.5 -21.5t19.5 -57.5z" />
<glyph unicode="&#x201c;" horiz-adv-x="408" d="M339 644l35 -39q-28 -20 -48.5 -49.5t-24.5 -52.5q24 -6 39 -23t15 -41q0 -27 -18.5 -46t-48.5 -19q-34 0 -53.5 21.5t-19.5 57.5q0 53 35 108.5t89 82.5zM169 644l35 -39q-28 -20 -48.5 -49.5t-24.5 -52.5q24 -6 39 -23t15 -41q0 -27 -18.5 -46t-48.5 -19 q-34 0 -53.5 21.5t-19.5 57.5q0 53 35 108.5t89 82.5z" />
<glyph unicode="&#x201d;" horiz-adv-x="408" d="M363 565q0 -54 -35 -109.5t-89 -81.5l-35 39q28 20 48.5 49.5t24.5 52.5q-24 6 -39 23t-15 41q0 27 18.5 46t48.5 19q34 0 53.5 -21.5t19.5 -57.5zM193 565q0 -54 -35 -109.5t-89 -81.5l-35 39q28 20 48.5 49.5t24.5 52.5q-24 6 -39 23t-15 41q0 27 18.5 46t48.5 19 q34 0 53.5 -21.5t19.5 -57.5z" />
<glyph unicode="&#x201e;" horiz-adv-x="408" d="M363 21q0 -54 -35 -109.5t-89 -81.5l-35 39q28 20 48.5 49.5t24.5 52.5q-24 6 -39 23t-15 41q0 27 18.5 46t48.5 19q34 0 53.5 -21.5t19.5 -57.5zM193 21q0 -54 -35 -109.5t-89 -81.5l-35 39q28 20 48.5 49.5t24.5 52.5q-24 6 -39 23t-15 41q0 27 18.5 46t48.5 19 q34 0 53.5 -21.5t19.5 -57.5z" />
<glyph unicode="&#x2020;" horiz-adv-x="558" d="M526 394q0 -53 -66 -45l-160 21l24 -528q2 -34 -8 -50t-39 -16t-38.5 16.5t-7.5 49.5l24 528l-156 -21q-66 -10 -66 45t66 46l154 -20l-22 158q-10 66 46 66t47 -66l-22 -159l158 21q66 9 66 -46z" />
<glyph unicode="&#x2021;" horiz-adv-x="558" d="M525 24q0 -45 -47 -45q-12 0 -18 1l-159 21l21 -160q1 -6 1 -18q0 -47 -45 -47t-45 47q0 12 1 18l21 160l-159 -21q-6 -1 -18 -1q-47 0 -47 45t47 45q12 0 18 -1l160 -22q-1 10 -10.5 70t-9.5 91q0 25 3 52.5t9 62t8 52.5l-160 -22q-6 -1 -18 -1q-47 0 -47 45t47 45 q12 0 18 -1l159 -21l-21 160q-1 6 -1 18q0 47 45 47t45 -47q0 -12 -1 -18l-21 -160l159 21q6 1 18 1q47 0 47 -45t-47 -45q-12 0 -18 1l-160 22q1 -8 10 -71t9 -96q0 -32 -9 -93t-10 -67l160 21q6 1 18 1q47 0 47 -45z" />
<glyph unicode="&#x2022;" horiz-adv-x="362" d="M302 314q0 -50 -35.5 -86t-85.5 -36t-85.5 36t-35.5 86t35.5 85t85.5 35t85.5 -35t35.5 -85z" />
<glyph unicode="&#x2026;" horiz-adv-x="671" d="M615 61q0 -28 -20 -48t-48 -20t-47.5 20t-19.5 48t19.5 47.5t47.5 19.5t48 -19.5t20 -47.5zM403 61q0 -28 -20 -48t-48 -20t-47.5 20t-19.5 48t19.5 47.5t47.5 19.5t48 -19.5t20 -47.5zM191 61q0 -28 -19.5 -48t-47.5 -20t-48 20t-20 48t20 47.5t48 19.5t47.5 -19.5 t19.5 -47.5z" />
<glyph unicode="&#x2030;" horiz-adv-x="1195" d="M1136 178q0 -88 -39.5 -137.5t-113.5 -49.5t-113 49.5t-39 137.5t39 137.5t113 49.5t113.5 -49.5t39.5 -137.5zM800 178q0 -88 -39.5 -137.5t-113.5 -49.5t-113 49.5t-39 137.5t39 137.5t113 49.5t113.5 -49.5t39.5 -137.5zM486 644h102l-212 -653h-102zM365 457 q0 -88 -39 -137.5t-113 -49.5t-113.5 49.5t-39.5 137.5t39.5 137.5t113.5 49.5t113 -49.5t39 -137.5zM1041 178q0 62 -13.5 88t-44.5 26t-44.5 -26t-13.5 -88t13.5 -88t44.5 -26t44.5 26t13.5 88zM705 178q0 62 -13.5 88t-44.5 26t-44.5 -26t-13.5 -88t13.5 -88t44.5 -26 t44.5 26t13.5 88zM271 457q0 62 -13.5 88t-44.5 26t-44.5 -26t-13.5 -88t13.5 -88t44.5 -26t44.5 26t13.5 88z" />
<glyph unicode="&#x2039;" horiz-adv-x="344" d="M175 242l87 -113l-25 -74l-154 160q-13 13 -13 27q0 12 13 27l154 160l25 -74z" />
<glyph unicode="&#x203a;" horiz-adv-x="344" d="M274 242q0 -14 -13 -27l-154 -160l-25 74l87 113l-87 113l25 74l154 -160q13 -15 13 -27z" />
<glyph unicode="&#x2044;" horiz-adv-x="259" d="M185 644h99l-210 -653h-99z" />
<glyph unicode="&#x20ac;" horiz-adv-x="558" d="M532 465l-134 -26q-21 99 -86 99q-49 0 -76 -39t-36 -93h121v-72h-127v-6q0 -28 1 -42h126v-72h-114q32 -117 142 -117q87 0 174 58l-8 -109q-79 -56 -194 -56q-107 0 -172 58.5t-86 165.5h-73v72h64q-1 9 -1 27q0 14 1 21h-64v72h70q18 110 83 174t174 64q86 0 144 -47 t71 -132z" />
<glyph unicode="&#x2113;" d="M267 95l-4 -76q-37 -25 -88 -25q-60 0 -85 34q-18 25 -18 78v484h-58v94h191v-572q0 -30 24 -30q21 0 38 13z" />
<glyph unicode="&#x2116;" horiz-adv-x="1029" d="M997 398q0 -88 -46 -138t-130 -50t-130 50t-46 138t46 138t130 50t130 -50t46 -138zM889 398q0 98 -68 98t-68 -98t68 -98t68 98zM581 633v-633h-92l-271 352q-23 30 -30 54v-406h-117v633h89l272 -352q25 -31 32 -54v406h117z" />
<glyph unicode="&#x2122;" horiz-adv-x="742" d="M677 633v-323h-68v179l-79 -179h-41l-83 182v-182h-68v323h77l98 -212l92 212h72zM305 633v-57h-97v-266h-79v266h-97v57h273z" />
<glyph unicode="&#x212e;" horiz-adv-x="824" d="M774 309h-587q-4 0 -4 -5v-178q0 -10 8 -21q93 -95 223 -95q69 0 129.5 29t102.5 79h53q-50 -59 -125.5 -93t-160.5 -34q-150 0 -256.5 95t-106.5 230q0 136 106.5 231t256.5 95q149 0 255 -95t106 -231v-7zM641 331v179q0 13 -9 22q-93 91 -218 91q-128 0 -222 -94 q-9 -9 -9 -23v-175q0 -5 4 -5h450q4 0 4 5z" />
<glyph unicode="&#x2202;" horiz-adv-x="558" d="M514 286q0 -132 -62.5 -214t-184.5 -82q-103 0 -163 59t-60 162q0 93 58 147.5t159 54.5q62 0 108 -23q-13 91 -47 129t-99 38q-59 0 -109 -18v85q51 20 124 20q137 0 206.5 -94.5t69.5 -263.5zM379 262q0 3 -3 45q-39 23 -87 23q-55 0 -84.5 -32t-29.5 -91 q0 -56 26 -88.5t70 -32.5q108 0 108 176z" />
<glyph unicode="&#x220f;" horiz-adv-x="768" d="M719 633v-104h-114v-752h-110v752h-222v-752h-110v752h-114v104h670z" />
<glyph unicode="&#x2211;" horiz-adv-x="573" d="M194 -131h353l-9 -97h-489v99l265 329l-268 335v98h451v-97h-285l258 -323z" />
<glyph unicode="&#x2212;" horiz-adv-x="535" d="M448 367v-92h-360v92h360z" />
<glyph unicode="&#x221a;" horiz-adv-x="558" d="M558 714v-78h-48l-239 -636h-106l-116 338h-48v75h142l94 -269l216 570h105z" />
<glyph unicode="&#x221e;" horiz-adv-x="779" d="M715 312q0 -86 -39.5 -134.5t-119.5 -48.5q-79 0 -166 110q-38 -52 -77.5 -81t-90.5 -29q-78 0 -118 48t-40 133q0 84 41.5 136t118.5 52q81 0 163 -104q82 104 170 104q77 0 117.5 -52t40.5 -134zM629 312q0 39 -18 62.5t-50 23.5t-58 -20.5t-55 -60.5 q23 -30 36.5 -45.5t33.5 -29.5t39 -14q31 0 51.5 23t20.5 61zM329 316q-30 40 -55 61t-53 21q-34 0 -52.5 -24.5t-18.5 -63.5q0 -38 21 -60t49 -22q29 0 54 22t55 66z" />
<glyph unicode="&#x222b;" horiz-adv-x="558" d="M485 678v-86q-43 15 -80 15q-32 0 -45.5 -16.5t-13.5 -50.5v-599q0 -82 -34 -121q-40 -46 -131 -46q-52 0 -107 19v85q42 -14 81 -14q32 0 45 16.5t13 50.5v599q0 81 34 120q40 46 131 46q55 0 107 -18z" />
<glyph unicode="&#x2248;" horiz-adv-x="535" d="M408 475l39 -33q-42 -101 -117 -101q-29 0 -70 24t-59 24q-37 0 -73 -46l-39 32q42 100 117 100q29 0 70.5 -24t58.5 -24q35 0 73 48zM408 304l39 -32q-42 -101 -117 -101q-29 0 -70 24t-59 24q-37 0 -73 -46l-39 32q42 100 117 100q29 0 70 -24t59 -24q36 0 73 47z" />
<glyph unicode="&#x2260;" horiz-adv-x="535" d="M439 270v-79h-181l-21 -66h-76l21 66h-85v79h110l33 102h-143v79h168l23 72h77l-23 -72h97v-79h-122l-33 -102h155z" />
<glyph unicode="&#x2264;" horiz-adv-x="535" d="M450 248v-101l-364 141v92l364 143v-101l-238 -87zM450 93v-93h-360v93h360z" />
<glyph unicode="&#x2265;" horiz-adv-x="535" d="M450 380v-92l-364 -141v101l238 87l-238 87v101zM446 93v-93h-360v93h360z" />
<glyph unicode="&#x25ca;" horiz-adv-x="641" d="M321 633l282 -317l-282 -316l-283 316zM321 113l179 203l-179 205l-180 -205z" />
<glyph unicode="&#xe000;" horiz-adv-x="485" d="M0 485h485v-485h-485v485z" />
<glyph horiz-adv-x="233" />
<glyph horiz-adv-x="500" d="M438 384v-189h-252v61h189v65h-189v187h252v-62h-188v-62h188zM438 633v-62h-313v-508h69v-63h-132v633h376z" />
</font>
</defs>
</svg>
